<svg xmlns="http://www.w3.org/2000/svg" width="27" height="24" fill="none" xmlns:v="https://vecta.io/nano"><path d="M11.569 23a1.22 1.22 0 1 0 0-2.444 1.22 1.22 0 1 0 0 2.444zm8.555 0a1.22 1.22 0 1 0 0-2.444 1.22 1.22 0 1 0 0 2.444z" fill="#fff" stroke="#fff" stroke-width="1.5" stroke-linejoin="round"/><path d="M1.791 1h3.782l2.836 16.073h15.128M7.902 13.184l15.247.107c.109 0 .215-.038.3-.107s.142-.166.164-.273l1.702-8.509a.47.47 0 0 0-.098-.393c-.044-.054-.1-.098-.163-.128a.47.47 0 0 0-.202-.045H6.358" stroke="#fff" stroke-linejoin="round" stroke-width="2" stroke-linecap="round"/></svg>