<svg width="1920" height="898" viewBox="0 0 1920 898" fill="none" xmlns="http://www.w3.org/2000/svg">
<mask id="mask0_0_609" style="mask-type:alpha" maskUnits="userSpaceOnUse" x="-1" y="0" width="1921" height="898">
<rect x="-0.00012207" width="1920" height="898" fill="#E3F1E9"/>
</mask>
<g mask="url(#mask0_0_609)">
<path d="M210.198 54.0525C199.525 51.5681 186.319 47.0995 186.343 37.9596C186.373 31.7571 191.577 25.9968 194.125 20.1582C199.024 8.92571 193.117 -3.29019 182.976 -11.9583C172.569 -20.866 157.208 -27.0937 140.746 -28.8765C132.662 -29.761 124.285 -29.5338 116.32 -28.0019C108.322 -26.4691 100.652 -23.663 93.5544 -20.6601C77.7616 -13.9539 63.6843 -5.02522 52.2803 5.11808C41.0815 15.0864 31.9679 26.6359 28.4473 39.0766C26.8349 44.8198 26.3952 50.8207 27.777 56.5759C29.4516 63.493 34.2492 69.8442 40.5866 75.1703C53.5596 86.0613 73.0759 93.2568 92.9069 96.2673C112.688 99.2454 133.132 95.507 147.671 85.2252C155.266 79.8551 160.382 73.2871 165.352 66.6897C167.876 63.3505 170.863 59.7835 176.295 58.5186C181.648 57.2672 187.119 58.4097 192.032 59.8502C196.26 61.1086 200.271 62.6885 204.498 63.9244C205.249 64.1496 205.972 63.9817 206.444 63.495C208.531 61.2605 211.013 59.2393 212.33 56.7014C212.942 55.4901 210.162 55.0665 209.55 56.2778C208.356 58.6095 205.855 60.5299 203.941 62.5904C204.601 62.4469 205.228 62.3044 205.887 62.1609C198.004 59.8635 190.234 55.9195 181.271 56.0066C170.125 56.1251 165.435 62.3315 160.872 68.4665C155.998 74.9936 150.177 81.2787 142.115 86.1674C134.419 90.8314 124.929 93.9282 114.908 94.9135C94.3831 96.9436 72.5403 90.988 56.4071 82.7124C48.1597 78.4787 40.8858 73.2255 35.9925 66.9222C31.4186 61.0257 29.5459 54.531 29.8505 47.78C30.3947 35.3831 37.7641 23.4016 47.5117 13.0601C57.7305 2.23182 71.0773 -7.32786 86.1655 -14.891C99.6749 -21.653 115.264 -27.5878 132.148 -27.4046C148.967 -27.2194 165.274 -21.8754 176.874 -13.6672C188.127 -5.68512 195.892 6.39661 192.004 17.8916C190.023 23.7696 185.243 29.1008 183.8 35.0866C182.243 41.616 186.604 47.44 194.203 51.0965C198.832 53.3221 204.117 54.7627 209.445 55.9883C211.27 56.4066 211.925 54.4512 210.198 54.0525Z" fill="#E1D4DB"/>
<path d="M200.527 55.1167C194.446 53.236 188.099 51.7145 182.284 49.452C179.45 48.3582 176.774 47.0558 174.479 45.4474C171.918 43.6204 170.223 41.3597 168.513 39.1108C163.174 31.985 160.401 24.0237 154.386 17.1447C143.149 4.32606 121.828 -3.52416 100.441 -4.75589C88.4991 -5.44217 76.3917 -3.99357 65.5592 -0.158432C63.8827 0.435368 65.3815 2.12412 67.042 1.54212C86.6281 -5.37506 110.289 -3.81458 128.834 3.26864C138.7 7.04182 147.213 12.4415 152.82 19.276C158.409 26.0771 161.127 33.8248 166.459 40.7242C169.743 44.9768 173.616 48.2149 179.617 50.7324C185.751 53.2913 192.621 54.8879 199.146 56.9026C200.822 57.4191 202.22 55.644 200.527 55.1167Z" fill="#E1D4DB"/>
<path d="M168.216 49.2381C135.229 45.9264 99.9953 45.8239 69.7863 35.2633C61.0192 32.2016 53.0548 28.2457 46.2496 23.3622C44.9879 22.4504 42.9996 23.9225 44.2613 24.8344C68.8582 42.4345 105.53 46.1563 139.295 48.8231C148.726 49.5705 158.17 50.2384 167.558 51.1792C169.351 51.3744 170.025 49.4215 168.216 49.2381Z" fill="#E1D4DB"/>
<path d="M151.795 37.1028C131.504 19.4454 98.25 10.4622 66.1743 8.95029C64.3324 8.85802 64.4071 10.8598 66.2324 10.9412C97.1671 12.3965 129.746 21.1168 149.319 38.1502C150.439 39.1472 152.915 38.0997 151.795 37.1028Z" fill="#E1D4DB"/>
<path d="M123.729 32.8739C110.426 31.6871 98.0345 27.7473 86.9296 22.7626C85.3973 22.0731 84.0184 23.856 85.5507 24.5454C96.8367 29.6039 109.523 33.6254 123.054 34.828C124.864 34.989 125.571 33.0338 123.729 32.8739Z" fill="#E1D4DB"/>
<path d="M157.587 57.3479C143.293 60.3937 128.593 62.9096 113.652 62.7452C97.6559 62.5559 82.9708 58.9062 68.9307 53.9952C59.1388 50.5722 49.1808 46.4654 43.4173 39.7833C42.476 38.6822 40.0071 39.7494 40.9484 40.8505C45.9553 46.6406 53.9781 50.6357 62.3361 53.8756C70.1187 56.873 78.2986 59.5762 86.7812 61.5252C101.132 64.8461 116.249 65.4794 131.315 63.8446C140.491 62.8371 149.485 61.1801 158.374 59.2778C160.149 58.8862 159.362 56.9788 157.587 57.3479Z" fill="#E1D4DB"/>
<path d="M152.97 65.2289C142.539 73.3198 128.913 79.1269 113.62 81.1726C96.2276 83.4839 78.6581 80.8394 64.6348 73.6128C56.1744 69.2422 48.9961 63.8073 41.3438 58.7924C40.0216 57.9298 38.0216 59.3876 39.3602 60.261C53.5908 69.5898 67.0165 80.2281 87.2166 83.0197C102.729 85.1618 119.026 83.6386 133.271 78.5008C141.517 75.5264 148.838 71.3956 155.052 66.5875C156.288 65.6035 154.222 64.2557 152.97 65.2289Z" fill="#E1D4DB"/>
<path d="M107.836 71.5021C97.6596 71.7716 87.4495 70.3137 79.4422 65.8641C78.0222 65.0705 76.0349 66.5418 77.4549 67.3355C86.057 72.1288 96.9069 73.8049 107.878 73.5004C109.744 73.4561 109.686 71.447 107.836 71.5021Z" fill="#E1D4DB"/>
<path d="M133.529 54.7603C121.154 54.7344 108.995 53.2582 97.0191 51.3704C95.2267 51.0855 94.5538 53.0345 96.3461 53.3194C108.55 55.2455 120.969 56.7365 133.571 56.7556C135.437 56.7564 135.379 54.7728 133.529 54.7603Z" fill="#E1D4DB"/>
<path d="M70.628 44.73C64.2833 42.7438 58.021 40.7892 53.3529 37.0988C52.1362 36.1494 50.1435 37.6251 51.3601 38.5745C56.1949 42.3958 62.7209 44.4559 69.2795 46.515C70.9233 47.0325 72.321 45.2573 70.628 44.73Z" fill="#E1D4DB"/>
<path d="M66.899 21.9078C60.963 20.2072 55.34 18.0901 49.3881 16.4013C47.6992 15.9201 46.3204 17.703 48.0093 18.1843C53.9452 19.8848 59.5682 22.0019 65.5201 23.6907C67.2249 24.1602 68.6044 22.3998 66.899 21.9078Z" fill="#E1D4DB"/>
<path d="M179.438 30.1458C176.295 20.7195 174.114 10.7432 165.495 2.89682C156.424 -5.35541 142.843 -11.2858 128.29 -13.6739C119.827 -15.0649 111.022 -15.3238 102.322 -14.7584C100.469 -14.6352 100.527 -12.6422 102.38 -12.7655C122.04 -14.0429 140.47 -10.5238 155.311 -1.61622C162.044 2.42173 167.124 7.35892 170.211 13.1942C173.194 18.8513 174.69 24.87 176.669 30.7383C177.097 31.9949 179.849 31.3916 179.438 30.1458Z" fill="#E1D4DB"/>
<path d="M180.431 3.64947C176.756 -0.973297 173.095 -5.67592 168.085 -9.68008C162.974 -13.772 156.496 -16.643 148.996 -18.2011C147.24 -18.5686 146.563 -16.6079 148.319 -16.2403C155.59 -14.7208 161.693 -11.8273 166.557 -7.80742C171.153 -4.02922 174.513 0.410011 177.95 4.7221C178.847 5.84155 181.312 4.78074 180.431 3.64947Z" fill="#E1D4DB"/>
<path d="M223.434 126.132C226.259 120.196 226.128 112.907 223.186 107.098C221.157 103.1 216.451 97.9085 209.175 99.0836C202.803 100.119 200.073 105.454 200.11 109.477C200.161 113.996 201.953 118.768 205.259 122.626C206.887 124.528 209.097 126.39 212.059 127.35C215.168 128.362 218.468 128.128 221.566 127.1C223.252 126.543 221.76 124.862 220.09 125.408C208.981 129.076 203.782 116.447 203.092 111.158C202.653 107.756 203.431 103.313 208.319 101.42C213.88 99.259 218.527 104.081 220.106 107.077C223.127 112.827 223.46 119.806 220.651 125.73C220.07 126.942 222.854 127.366 223.434 126.132Z" fill="#E1D4DB"/>
<path d="M221.351 125.771C217.905 121.774 216.357 117.133 214.618 112.655C214.144 111.416 211.368 112.018 211.859 113.246C213.667 117.879 215.333 122.686 218.897 126.827C219.822 127.918 222.308 126.861 221.351 125.771Z" fill="#E1D4DB"/>
<path d="M202.013 130.905C197.634 128.733 193.159 126.655 188.495 124.762C183.175 122.596 177.231 120.222 170.998 119.607C168.801 119.39 166.351 119.407 164.448 120.355C162.353 121.4 161.757 123.223 161.79 124.904C161.835 127.543 162.889 130.311 165.189 132.387C167.822 134.769 171.617 136.36 175.654 137.334C184.298 139.413 196.407 138.95 201.895 132.952C202.901 131.861 200.36 130.954 199.369 132.034C195.092 136.721 185.463 137.076 178.629 135.869C174.861 135.202 171.19 133.957 168.504 132.006C166.084 130.25 164.978 127.935 164.696 125.517C164.608 124.729 164.584 123.895 164.935 123.128C165.148 122.648 165.573 122.218 165.973 122.014C167.236 121.356 169.12 121.412 170.83 121.621C176.382 122.279 181.603 124.336 186.397 126.247C189.221 127.382 191.982 128.586 194.696 129.825C195.749 130.313 196.801 130.801 197.855 131.311C198.299 131.535 198.743 131.736 199.188 131.96C199.583 132.151 199.88 132.301 200.028 132.375C201.509 133.098 203.511 131.639 202.013 130.905Z" fill="#E1D4DB"/>
<path d="M199.8 131.918C193.626 131.233 187.785 129.702 181.84 128.501C180.077 128.147 179.403 130.098 181.167 130.452C187.112 131.653 192.953 133.184 199.126 133.869C200.935 134.075 201.624 132.112 199.8 131.918Z" fill="#E1D4DB"/>
<path d="M190.492 110.854C189.398 105.688 187.981 100.001 183.181 95.8497C180.247 93.3154 175.867 90.7676 171.106 90.1863C169.068 89.9419 166.929 90.1413 165.334 91.1607C163.5 92.3342 163 94.1347 162.853 95.7664C162.49 100.026 166.306 103.845 170.688 106.484C175.484 109.369 181.773 111.634 188.264 111.904C190.102 111.973 190.027 109.975 188.206 109.917C183.472 109.73 178.795 108.14 175.004 106.287C170.9 104.274 167.08 101.449 165.954 97.9229C165.239 95.7066 165.643 91.7166 170.155 92.1132C174.096 92.4477 177.767 94.6211 180.31 96.5908C185.182 100.39 186.581 106.021 187.618 110.929C187.882 112.187 190.756 112.112 190.492 110.854Z" fill="#E1D4DB"/>
<path d="M188.876 109.376C184.985 106.836 181.526 104.023 177.635 101.483C176.305 100.615 174.292 102.082 175.639 102.961C179.53 105.501 182.989 108.314 186.88 110.854C188.227 111.733 190.223 110.255 188.876 109.376Z" fill="#E1D4DB"/>
<path d="M1681.84 19.2685C1707.2 26.1593 1744.37 26.3295 1769.26 9.88046C1769.94 9.43426 1769.92 8.72343 1769.46 8.31257C1764.46 3.97349 1756.03 2.00793 1748.49 0.398675C1739.48 -1.53317 1730.52 -2.61255 1720.54 -2.07061C1711.35 -1.57362 1703.04 0.243498 1694.45 3.81161C1690.14 5.59189 1685.99 7.62239 1681.9 9.69919C1680.08 10.631 1678.25 11.5789 1676.43 12.5343C1675.16 13.204 1673.48 13.8017 1672.62 14.7802C1672.12 15.3577 1672.36 15.962 1672.99 16.2436C1675.72 17.54 1678.91 18.2203 1681.84 19.2685C1683.46 19.8413 1685.22 17.8437 1683.59 17.2633C1680.66 16.2151 1677.47 15.5348 1674.74 14.262C1674.87 14.7577 1674.99 15.2533 1675.11 15.7254C1675.68 15.0677 1678.21 14.1079 1679.23 13.5769C1680.93 12.6865 1682.66 11.8037 1684.37 10.937C1688.06 9.0724 1691.81 7.25411 1695.7 5.65489C1703.98 2.22634 1711.94 0.573322 1720.8 0.12149C1730.06 -0.352816 1738.32 0.675271 1746.69 2.4284C1753.98 3.93936 1762.27 5.81234 1767.11 10.0041C1767.18 9.47357 1767.25 8.96668 1767.31 8.43618C1755.33 16.3527 1739.96 19.9497 1725.37 20.9814C1710.84 22.0121 1696.34 20.7271 1683.57 17.2558C1681.89 16.8104 1680.12 18.808 1681.84 19.2685Z" fill="#DBDBDB"/>
<path d="M1677.57 15.8711C1693.38 13.0537 1709.27 11.5485 1725.02 10.7814C1731.8 10.4522 1738.58 9.88563 1745.38 9.41363C1752.48 8.92856 1759.8 8.59013 1766.3 10.0379C1768.06 10.4273 1769.09 8.23379 1767.34 7.84436C1761.07 6.46381 1754 6.66342 1747.16 7.09663C1739.87 7.55325 1732.59 8.20744 1725.32 8.56102C1709.28 9.34872 1693.18 10.921 1677.08 13.7827C1675.1 14.1409 1675.64 16.2284 1677.57 15.8711Z" fill="#DBDBDB"/>
<path d="M1758.24 11.236C1741.82 14.7128 1725.09 18.4766 1708.65 18.3079C1706.76 18.286 1706.5 20.4733 1708.4 20.4952C1725.07 20.6676 1742.08 16.8441 1758.74 13.3084C1760.67 12.8994 1760.16 10.8428 1758.24 11.236Z" fill="#DBDBDB"/>
<path d="M1734.12 3.68028C1724.72 3.48864 1715.29 4.96402 1705.79 6.58213C1703.84 6.90649 1704.38 8.98034 1706.3 8.64846C1715.58 7.07348 1724.73 5.68161 1733.88 5.86191C1735.77 5.92354 1736.01 3.71843 1734.12 3.68028Z" fill="#DBDBDB"/>
<path d="M1704.14 13.2668C1700.09 13.1842 1696.13 12.7502 1692 12.9392C1691.18 12.969 1690.42 13.562 1690.35 14.1594C1690.27 14.7728 1690.92 15.2149 1691.76 15.1689C1695.89 14.98 1699.85 15.414 1703.9 15.4966C1704.72 15.5067 1705.49 14.8338 1705.55 14.2764C1705.6 13.6316 1704.94 13.293 1704.14 13.2668Z" fill="#DBDBDB"/>
<path d="M1655.03 -0.59024C1682.93 -3.35283 1717.52 -15.1841 1730.87 -36.0376C1731.26 -36.6286 1730.62 -37.1184 1730 -37.2746C1722.6 -39.0827 1713.34 -37.8464 1705.26 -36.653C1696.33 -35.3313 1687.95 -33.4953 1679.51 -30.2015C1671.04 -26.8995 1664.12 -22.9034 1658.05 -17.3131C1654.94 -14.4368 1652.15 -11.3918 1649.47 -8.31046C1648.27 -6.93927 1647.08 -5.54541 1645.9 -4.16696C1645.08 -3.18908 1643.86 -2.17419 1643.65 -1.08545C1643.56 -0.666638 1644 -0.150598 1644.61 -0.123146C1648.06 0.0378498 1651.54 -0.462048 1655.03 -0.59024C1656.9 -0.660178 1657.15 -2.78153 1655.28 -2.71159C1652.06 -2.60323 1648.77 -2.09147 1645.6 -2.21155C1645.92 -1.88323 1646.24 -1.57756 1646.56 -1.24924C1646.7 -1.93457 1648.62 -3.64453 1649.28 -4.39946C1650.39 -5.70087 1651.5 -7.0023 1652.65 -8.28919C1655.09 -11.0551 1657.62 -13.7848 1660.44 -16.3828C1666.25 -21.7257 1673.07 -25.4699 1681.15 -28.5907C1689.22 -31.696 1697.3 -33.3826 1705.82 -34.6138C1713.44 -35.7158 1722.07 -36.8427 1729.01 -35.1481C1728.71 -35.568 1728.42 -35.9652 1728.13 -36.3851C1721.7 -26.3571 1709.47 -18.6353 1696.48 -13.1539C1683.54 -7.69611 1669.26 -4.08199 1655.3 -2.70433C1653.41 -2.52017 1653.16 -0.398819 1655.03 -0.59024Z" fill="#DBDBDB"/>
<path d="M1648.67 -1.73817C1662.09 -9.21599 1676.35 -15.639 1690.99 -21.4242C1697.02 -23.8019 1702.89 -26.4271 1708.85 -28.9172C1714.83 -31.4154 1721.15 -33.8891 1727.67 -34.7892C1729.52 -35.0483 1729.79 -37.1606 1727.92 -36.9087C1715.11 -35.1428 1703.51 -28.5682 1691.79 -23.9701C1676.46 -17.976 1661.49 -11.3133 1647.46 -3.49151C1645.87 -2.6 1647.08 -0.846661 1648.67 -1.73817Z" fill="#DBDBDB"/>
<path d="M1720.9 -30.7757C1707.84 -22.8667 1694.63 -14.5864 1679.39 -9.50088C1677.62 -8.91451 1678.1 -6.92073 1679.88 -7.52237C1695.64 -12.7747 1709.22 -21.2191 1722.74 -29.3992C1724.29 -30.3355 1722.43 -31.6967 1720.9 -30.7757Z" fill="#DBDBDB"/>
<path d="M1953.78 -94.4682C1972.49 -75.4178 1987.59 -54.5893 2002.57 -34.1852C2009.09 -25.3144 2015.22 -16.2655 2020.22 -7.00653C2024.85 1.61366 2028.97 10.7929 2029.28 19.6983C2029.44 23.9416 2029.21 30.2947 2022.89 31.8367C2018.16 32.9873 2012.05 31.3111 2007.21 30.1057C1998.65 27.9567 1984.42 22.921 1979.3 29.8737C1976.53 33.6546 1977.66 38.4993 1979.27 42.8293C1981.47 48.6793 1984.79 54.3841 1987.47 60.1381C1990.05 65.7243 1992.82 72.0649 1991.21 77.6085C1989.57 83.2289 1982.07 86.7329 1973.85 86.3936C1964.39 85.9904 1955.36 80.9645 1947.7 76.8338C1940.48 72.9198 1933.09 68.337 1924.67 66.1285C1916.06 63.8853 1908.93 66.1495 1903.16 69.9429C1895.53 74.9337 1890.23 81.5184 1884.16 87.4715C1878.06 93.4689 1871.45 98.3827 1861.65 101.375C1854.11 103.679 1841.38 106.327 1834.01 100.402C1826.02 93.9778 1828.65 83.6563 1830.77 76.899C1833.48 68.2375 1837.83 59.9985 1841.79 51.7223C1843.37 48.4231 1844.9 45.1152 1846.17 41.7432C1846.51 40.816 1845.04 39.9036 1843.83 39.8809C1835.32 39.7371 1826.48 38.4266 1818.07 36.572C1809.83 34.7523 1799.57 32.0336 1793.8 26.8115C1787.02 20.6784 1793.14 14.0468 1799.47 10.5082C1807.71 5.86642 1818.15 3.29668 1827.7 0.0898666C1837.4 -3.15578 1848.29 -7.23689 1851.74 -15.0395C1852.07 -15.7838 1851.71 -16.6054 1850.57 -17.0707C1838.89 -21.917 1826.11 -25.6745 1815.48 -31.8867C1811.45 -34.2331 1806.68 -37.5238 1806.68 -41.3016C1806.68 -46.6572 1815.19 -50.1733 1820.8 -52.1672C1830.43 -55.5926 1841.4 -56.9401 1852.11 -58.5021C1859.66 -59.6145 1871.54 -59.8 1873.32 -66.4354C1873.73 -67.9555 1872.81 -68.7636 1871.41 -69.9476C1869 -72.0426 1869.67 -74.637 1869.5 -77.0872C1869.38 -78.4021 1868.78 -80.5118 1869.71 -81.6472C1870.72 -82.9363 1874.05 -83.2743 1875.92 -83.646C1887.67 -86.0577 1899.98 -87.2709 1912.05 -89.085C1918.73 -90.1061 1925.68 -90.6239 1932.43 -91.5303C1939.64 -92.4882 1946.79 -93.5729 1953.94 -94.6575C1956.45 -95.0459 1954.88 -97.9075 1952.35 -97.5396C1939.51 -95.5844 1926.6 -93.809 1913.54 -92.3486C1907.33 -91.6592 1901.24 -90.578 1895.09 -89.7944C1888.93 -89.0109 1882.77 -88.1949 1876.81 -86.9902C1872.45 -86.1239 1866.2 -85.5082 1865.29 -81.7658C1864.85 -79.868 1865.34 -77.7108 1865.46 -75.7412C1865.64 -73.3235 1865.24 -70.9128 1867.63 -68.7735C1868.06 -68.3738 1869.19 -67.8436 1869.25 -67.3956C1869.55 -65.5946 1865.2 -63.6018 1863.41 -63.2127C1858.3 -62.0668 1852.5 -61.6205 1847.17 -60.8514C1835.76 -59.2164 1824.23 -57.4365 1814.45 -53.2322C1809.19 -50.9739 1803.35 -47.4782 1802.56 -42.6892C1801.96 -39.0569 1804.72 -35.5711 1808.38 -32.7575C1819.35 -24.3169 1835.47 -20.0186 1848.95 -14.4673C1848.55 -15.1473 1848.19 -15.8185 1847.78 -16.4985C1844.24 -8.44484 1832.04 -4.72522 1822.06 -1.49931C1811.86 1.82166 1800.35 4.69563 1792.7 10.5889C1787.32 14.7408 1784 21.0892 1789.16 27.0033C1794.17 32.7734 1804.03 36.0036 1812.36 38.1946C1822.62 40.9133 1833.74 42.6825 1844.25 42.8464C1843.48 42.2148 1842.72 41.6038 1841.92 40.9841C1838.78 49.3314 1834.23 57.2467 1830.61 65.4539C1827.31 73.0143 1823.81 81.1415 1824.58 89.5116C1825.22 96.3633 1829.27 103.968 1839.76 106.226C1849.49 108.324 1859.72 105.699 1867.6 102.769C1877.08 99.2641 1883.36 93.6023 1889.39 87.4901C1895.36 81.4341 1900.97 74.2025 1909.82 70.0926C1917.95 66.3034 1926.45 69.2813 1934.62 73.3898C1943.12 77.6771 1951.03 82.7951 1960.22 86.2692C1968.68 89.4743 1977.63 90.4896 1985.45 87.6157C1992.08 85.1909 1995.47 80.5676 1995.57 75.0465C1995.79 62.7804 1984.85 51.1723 1981.99 39.0723C1981.16 35.6097 1981.07 30.3547 1986.62 29.458C1991.52 28.6756 1997.79 30.7523 2002.61 32.002C2013.11 34.7317 2027.13 38.1667 2031.63 29.3521C2034.92 22.8977 2033.08 14.7139 2030.72 7.74379C2027.48 -1.89243 2022.2 -11.3216 2016.24 -20.4742C2010.45 -29.4093 2003.91 -38.1501 1997.16 -46.8284C1988.65 -57.8338 1980.58 -69.0088 1971.49 -79.8177C1966.88 -85.2942 1962.03 -90.6638 1956.85 -95.9113C1955.43 -97.6202 1952.14 -96.1351 1953.78 -94.4682Z" fill="#DBDBDB"/>
<path d="M1953.28 -98.621C1947.56 -72.6724 1932.11 -49.1653 1918.2 -25.7797C1910.91 -13.5456 1903.9 -1.19304 1896.31 10.9346C1888.31 23.7322 1880.12 36.4617 1872.44 49.3866C1868.23 56.4352 1864.18 63.5639 1860.41 70.7781C1858.53 74.3689 1856.71 77.9892 1854.99 81.6271C1853.19 85.3877 1852.13 89.3009 1850.38 93.0703C1849.6 94.8099 1853.47 96.313 1854.28 94.5614C1855.68 91.4587 1856.51 88.1969 1857.93 85.1151C1859.47 81.8001 1861.08 78.5147 1862.76 75.2261C1866.12 68.6489 1869.71 62.1485 1873.46 55.7282C1881.11 42.6095 1889.35 29.7037 1897.45 16.7715C1905.34 4.17422 1912.78 -8.57667 1920.3 -21.31C1927.33 -33.2179 1934.64 -45.0402 1941.15 -57.1642C1948.13 -70.221 1954.3 -83.666 1957.41 -97.835C1957.87 -99.7019 1953.7 -100.464 1953.28 -98.621Z" fill="#DBDBDB"/>
<path d="M1886.55 69.2211C1885.07 63.7265 1883.78 58.2018 1882.69 52.6795C1881.44 46.4263 1880.23 40.0641 1880.34 33.8799C1880.36 32.4463 1878.03 31.3932 1876.63 32.47C1867.34 39.5678 1856.35 45.4138 1847.25 52.6315C1845.59 53.944 1848.91 56.0339 1850.57 54.7213C1859.67 47.5036 1870.66 41.6576 1879.95 34.5598C1878.72 34.079 1877.46 33.6101 1876.24 33.1498C1876.11 39.4633 1877.23 45.8933 1878.51 52.2523C1879.63 57.9125 1880.94 63.5752 1882.46 69.2283C1882.96 71.1098 1887.07 71.123 1886.55 69.2211Z" fill="#DBDBDB"/>
<path d="M1937.78 58.657C1918.49 40.0986 1911.22 18.7757 1904.57 -2.47971C1904.32 -3.30271 1903.03 -4.27016 1901.77 -3.90912C1882.77 1.77981 1863.3 6.77122 1844.23 12.3473C1841.92 13.0078 1843.46 15.8541 1845.79 15.1819C1864.87 9.60589 1884.33 4.61449 1903.34 -1.07445C1902.41 -1.56156 1901.47 -2.01674 1900.54 -2.50385C1907.36 19.2296 1914.82 41.1146 1934.57 60.1066C1936.19 61.714 1939.45 60.2729 1937.78 58.657Z" fill="#DBDBDB"/>
<path d="M1965.47 16.7893C1947.86 0.0547432 1938.83 -19.9955 1930.19 -39.1111C1929.77 -40.066 1928.04 -40.4555 1927.05 -40.0104C1909.95 -32.4607 1888.68 -30.3031 1871.58 -22.7854C1869.49 -21.8688 1871.97 -19.3223 1874.09 -20.2507C1891.17 -27.7886 1912.45 -29.926 1929.56 -37.4756C1928.52 -37.7686 1927.46 -38.0819 1926.42 -38.3749C1935.2 -19.001 1944.4 1.29568 1962.23 18.2533C1963.91 19.8404 1967.15 18.3764 1965.47 16.7893Z" fill="#DBDBDB"/>
<path d="M1985.15 -17.2091C1974.81 -35.2862 1961.38 -52.5428 1950.1 -70.3997C1949.67 -71.1066 1948.46 -71.727 1947.44 -71.4401C1929.54 -66.5288 1908.49 -68.182 1891.01 -62.5203C1888.74 -61.7895 1891.26 -59.2797 1893.49 -59.9988C1910.61 -65.5493 1931.42 -63.7912 1948.97 -68.6348C1948.07 -68.9844 1947.21 -69.3255 1946.31 -69.6752C1957.59 -51.8501 1971.02 -34.5617 1981.35 -16.4846C1982.39 -14.6781 1986.17 -15.4228 1985.15 -17.2091Z" fill="#DBDBDB"/>
<path d="M879.171 24.762C867.451 17.7406 853.679 11.0791 839.923 9.21495C826.875 7.44055 816.736 11.5355 811.909 19.6053C807.513 26.9491 806.931 36.0846 807.558 44.8481C808.262 54.6446 810.664 64.9482 815.625 74.8342C819.153 81.8305 824.186 89.4278 833.441 93.5178C841.52 97.0992 850.285 96.9267 857.767 95.6669C866.892 94.1394 875.041 90.9546 882.538 87.3607C889.59 84.0103 896.781 80.2569 902.334 75.6154C909.481 69.6454 912.723 61.2601 908.154 51.8542C902.89 41.0176 890.967 32.9173 879.982 24.7627C878.504 23.6682 876.484 24.8699 877.974 25.9814C887.312 32.9055 897.387 39.6278 903.296 48.4439C908.4 56.0418 908.624 63.6799 904.022 69.7428C899.809 75.2533 892.679 79.0913 885.933 82.7023C879.35 86.2079 872.307 89.3733 864.576 91.6131C857.581 93.6511 849.415 95.2198 840.927 93.6551C832.154 92.0265 825.937 86.7596 821.816 80.5946C816.094 72.0717 813.192 62.7966 811.582 54.0591C809.917 45.0125 809.535 35.7965 811.856 27.5218C814.431 18.3066 821.694 10.542 835.642 11.0161C850.073 11.4996 865.477 19.0717 877.767 26.423C879.428 27.4067 880.811 25.7511 879.171 24.762Z" fill="#D3CBCF"/>
<path d="M889.041 23.4138C886.159 21.3629 883.44 18.9424 882.43 16.1758C881.596 13.8882 882.112 11.7179 883.155 9.84949C885.603 5.48634 890.327 2.26478 894.163 -1.26154C896.167 -3.08864 898.078 -5.01199 899.179 -7.36308C898.237 -7.61209 897.274 -7.85564 896.312 -8.09918C895.186 2.61763 899.63 17.064 886.549 22.6357C885.108 23.2537 887.228 25.1076 888.681 24.5066C902.487 18.6146 898.038 3.66261 899.233 -7.62112C899.366 -8.89546 896.825 -9.37615 896.352 -8.37417C894.219 -3.8737 889.078 -0.700363 885.313 2.82652C881.68 6.23645 877.855 10.5101 879.474 15.8492C880.487 19.1833 883.6 22.1855 887.043 24.651C888.551 25.7192 890.573 24.5159 889.041 23.4138Z" fill="#D3CBCF"/>
<path d="M888.242 23.2859C895.917 18.1529 906.566 14.5817 918.531 17.6004C918.072 16.9445 917.612 16.2885 917.152 15.6325C914.488 19.3302 909.351 21.5648 904.06 22.8174C898.769 24.07 892.283 24.5246 886.255 22.4062C884.31 21.7326 883.568 23.8623 885.513 24.5359C892.208 26.8809 899.292 26.5194 905.24 25.1905C911.134 23.8553 916.927 21.3263 919.854 17.2055C920.387 16.4442 919.651 15.5388 918.475 15.2376C905.737 12.0221 894.152 15.814 885.985 21.2602C884.672 22.1762 886.916 24.1837 888.242 23.2859Z" fill="#D3CBCF"/>
<path d="M886.283 23.828C870.334 17.5741 862.356 2.77614 868.149 -7.71409C867.387 -7.67419 866.625 -7.63429 865.87 -7.61589C868.734 -5.24187 871.85 -3.05513 874.695 -0.675809C877.399 1.56841 880.263 4.13615 880.997 7.01255C881.352 8.38613 883.978 8.26784 883.653 6.90514C882.098 0.769938 873.268 -4.2492 867.765 -8.80799C866.917 -9.50024 865.854 -9.37549 865.486 -8.70979C859.157 2.78445 868.368 18.922 885.632 25.6978C887.332 26.3829 887.99 24.4915 886.283 23.828Z" fill="#D3CBCF"/>
<path d="M840.121 18.2394C838.751 19.589 838.56 21.4481 838.288 23.2279C838.254 23.4806 838.503 23.8592 838.753 24.0747C839.004 24.2903 839.418 24.5016 839.783 24.5438C840.18 24.5975 840.567 24.5724 840.813 24.3833C841.092 24.2056 841.169 23.9813 841.198 23.6892C841.195 23.7511 841.149 23.9868 841.198 23.6892C841.201 23.6274 841.225 23.5602 841.228 23.4984C841.247 23.3917 841.253 23.2681 841.272 23.1614C841.31 22.9481 841.335 22.7178 841.393 22.4991C841.473 22.1118 841.552 21.7246 841.664 21.3489C841.706 21.1749 841.781 21.0125 841.855 20.8501C841.898 20.7773 841.929 20.6876 841.972 20.6149C841.988 20.57 842.003 20.5252 842.031 20.4973C842.125 20.3294 841.894 20.7379 841.988 20.57C842.188 20.2512 842.413 19.9663 842.67 19.6929C843.078 19.297 842.749 18.4737 842.061 18.1141C841.34 17.7431 840.544 17.7986 840.121 18.2394Z" fill="#D3CBCF"/>
<path d="M865.655 28.5242C865.501 29.5476 865.101 30.4954 864.623 31.403C864.587 31.4537 864.572 31.4988 864.536 31.5495C864.615 31.4256 864.58 31.4763 864.528 31.5721C864.469 31.6905 864.398 31.7918 864.338 31.9102C864.208 32.13 864.057 32.3552 863.914 32.5579C863.613 33.0084 863.292 33.4643 862.97 33.9203C862.649 34.3763 862.814 35.1078 863.585 35.5102C864.258 35.8778 865.226 35.9194 865.583 35.4127C866.848 33.5943 868.182 31.7368 868.524 29.5375C868.573 29.2379 868.566 28.9944 868.345 28.687C868.161 28.4308 867.787 28.1448 867.443 28.0345C866.735 27.8195 865.745 27.9475 865.655 28.5242Z" fill="#D3CBCF"/>
<path d="M893.482 44.834C893.496 45.0543 893.511 45.2746 893.525 45.495C893.526 45.5966 893.527 45.6982 893.508 45.8054C893.505 45.8675 893.49 45.9125 893.486 45.9746C893.491 46.0141 893.448 46.1888 893.478 45.9971C893.508 45.8054 893.466 45.9801 893.471 46.0196C893.467 46.0817 893.452 46.1268 893.448 46.1888C893.429 46.296 893.391 46.4086 893.372 46.5157C893.322 46.7129 893.239 46.8986 893.157 47.0843C893.106 47.1799 893.075 47.27 893.023 47.3655C892.937 47.5117 893.023 47.3655 893.047 47.298C893.011 47.3485 892.995 47.3935 892.96 47.4441C892.845 47.6182 892.711 47.7978 892.576 47.9774C892.441 48.1571 892.274 48.3251 892.127 48.4877C892.024 48.5772 891.94 48.6613 891.837 48.7508C891.761 48.8123 891.585 48.9012 891.857 48.7453C891.789 48.7843 891.753 48.8348 891.685 48.8738C891.438 49.0638 891.276 49.2714 891.299 49.5709C891.298 49.8362 891.483 50.1934 891.767 50.4215C892.323 50.8607 893.335 51.134 893.849 50.7485C894.777 50.0049 895.52 49.1695 895.995 48.1625C896.403 47.2963 896.541 46.3205 896.43 45.3316C896.375 44.7552 895.765 44.1067 894.935 43.9873C894.171 43.8909 893.422 44.2181 893.482 44.834Z" fill="#D3CBCF"/>
<path d="M844.837 35.1499C844.099 36.7646 843.358 38.4407 843.562 40.342C843.615 40.9124 844.219 41.5541 845.039 41.6722C845.776 41.7729 846.535 41.4435 846.477 40.834C846.417 40.3865 846.44 39.9565 846.483 39.521C846.478 39.4818 846.494 39.4372 846.509 39.3927C846.5 39.6776 846.491 39.4987 846.494 39.4372C846.513 39.3312 846.531 39.2252 846.55 39.1192C846.587 38.9071 846.657 38.7065 846.706 38.5113C846.952 37.6975 847.306 36.9347 847.659 36.1719C847.9 35.6821 847.323 34.9121 846.593 34.6886C845.775 34.4084 845.094 34.6155 844.837 35.1499Z" fill="#D3CBCF"/>
<path d="M867.712 46.4666C867.47 48.0557 866.73 49.5173 866.049 50.9624C865.819 51.4722 866.387 52.23 867.122 52.4551C867.934 52.7201 868.64 52.5064 868.878 51.9742C869.538 50.5345 870.279 49.073 870.541 47.4784C870.59 47.1808 870.583 46.939 870.364 46.6337C870.181 46.3792 869.809 46.0952 869.468 45.9857C869.094 45.8647 868.678 45.8164 868.371 45.9208C868.071 46.0028 867.753 46.1914 867.712 46.4666Z" fill="#D3CBCF"/>
<path d="M823.979 42.1707C823.549 44.9629 822.678 47.6348 822.249 50.4269C822.167 50.972 822.487 51.6483 823.31 51.9052C823.998 52.1387 824.97 52.0125 825.047 51.4284C825.477 48.6363 826.348 45.9644 826.778 43.1722C826.859 42.6271 826.539 41.9509 825.716 41.694C825.041 41.4772 824.068 41.6034 823.979 42.1707Z" fill="#D3CBCF"/>
<path d="M847.194 53.7463C846.992 55.1993 847.204 56.7382 847.002 58.1911C846.969 58.4397 847.212 58.812 847.458 59.0239C847.704 59.2359 848.11 59.4435 848.468 59.4848C848.857 59.5374 849.238 59.5126 849.48 59.3263C849.753 59.1514 849.829 58.9307 849.858 58.6434C850.06 57.1904 849.848 55.6515 850.05 54.1986C850.083 53.95 849.839 53.5777 849.594 53.3657C849.348 53.1538 848.941 52.9462 848.584 52.9049C848.194 52.8523 847.813 52.8771 847.572 53.0634C847.311 53.255 847.222 53.459 847.194 53.7463Z" fill="#D3CBCF"/>
<path d="M878.17 62.818C876.9 64.6321 875.863 66.5681 874.359 68.2604C873.969 68.6976 874.267 69.4832 874.979 69.8661C875.724 70.2607 876.59 70.2503 876.996 69.7674C878.487 68.0579 879.536 66.1392 880.806 64.3251C881.131 63.8645 880.964 63.1256 880.187 62.7193C879.499 62.3709 878.522 62.329 878.17 62.818Z" fill="#D3CBCF"/>
<path d="M832.009 62.1709C831.724 64.0837 830.973 65.8421 830.668 67.7603C830.619 68.0558 830.626 68.296 830.843 68.5991C831.025 68.8518 831.393 69.1338 831.732 69.2425C832.422 69.4767 833.398 69.3503 833.475 68.7646C833.76 66.8519 834.512 65.0934 834.817 63.1752C834.865 62.8797 834.859 62.6396 834.641 62.3364C834.459 62.0838 834.091 61.8018 833.752 61.6931C833.074 61.4757 832.099 61.6021 832.009 62.1709Z" fill="#D3CBCF"/>
<path d="M857.378 68.9973C856.547 70.7728 855.768 72.5543 855.077 74.393C854.898 74.9104 855.385 75.653 856.154 75.8903C856.936 76.1446 857.709 75.9533 857.915 75.4079C858.586 73.5748 859.385 71.7877 860.216 70.0122C860.447 69.5009 859.877 68.7407 859.139 68.5149C858.325 68.2491 857.617 68.4634 857.378 68.9973Z" fill="#D3CBCF"/>
<path d="M833.604 79.7044C832.874 81.2918 832.151 82.8567 831.408 84.4271C831.177 84.9393 831.748 85.7009 832.487 85.9271C833.303 86.1934 834.012 85.9787 834.252 85.4438C834.994 83.8735 835.705 82.2916 836.447 80.7212C836.679 80.2089 836.107 79.4474 835.369 79.2212C834.573 78.9494 833.864 79.1641 833.604 79.7044Z" fill="#D3CBCF"/>
<path d="M819.131 73.6037C819.192 74.0512 819.169 74.4813 819.126 74.9169C819.13 74.956 819.115 75.0006 819.099 75.0452C819.108 74.7603 819.118 74.9392 819.115 75.0006C819.096 75.1067 819.077 75.2127 819.059 75.3187C819.021 75.5308 818.952 75.7314 818.902 75.9266C818.656 76.7406 818.303 77.5034 817.949 78.2663C817.72 78.773 818.285 79.5262 819.015 79.7498C819.821 80.0131 820.523 79.8006 820.759 79.2716C821.497 77.6567 822.239 75.9804 822.035 74.0789C821.981 73.5085 821.378 72.8667 820.558 72.7486C819.813 72.6702 819.053 72.9996 819.131 73.6037Z" fill="#D3CBCF"/>
<path d="M855.967 81.0639C855.876 81.6419 855.701 82.2023 855.395 82.7162C855.439 82.6427 855.47 82.5522 855.534 82.4733C855.17 83.1059 854.663 83.6749 854.099 84.1981C853.911 84.3725 853.879 84.7297 853.971 84.9914C854.075 85.2703 854.361 85.6016 854.682 85.78C855.023 85.9529 855.413 86.0921 855.784 86.0724C856.176 86.0471 856.441 85.913 856.677 85.7049C857.744 84.6751 858.587 83.5016 858.802 82.0905C858.851 81.7902 858.844 81.5462 858.623 81.2381C858.438 80.9813 858.063 80.6946 857.719 80.5841C857.342 80.462 856.921 80.4133 856.611 80.5187C856.329 80.5959 856.008 80.7863 855.967 81.0639Z" fill="#D3CBCF"/>
<path d="M898.765 57.0988C897.934 58.8739 896.8 60.5282 896.465 62.4933C896.416 62.7917 896.423 63.0342 896.643 63.3404C896.826 63.5956 897.199 63.8804 897.541 63.9902C898.238 64.2269 899.224 64.0994 899.302 63.508C899.605 61.5314 900.771 59.8886 901.602 58.1135C901.846 57.6192 901.263 56.8422 900.526 56.6165C899.7 56.3337 899.024 56.5596 898.765 57.0988Z" fill="#D3CBCF"/>
<path d="M821.793 27.7577C820.941 28.967 820.335 30.3528 820.099 31.8203C820.05 32.1183 820.057 32.3604 820.276 32.6661C820.46 32.9209 820.832 33.2053 821.173 33.315C821.548 33.4362 821.965 33.4845 822.272 33.38C822.56 33.2809 822.878 33.092 822.932 32.8335C823.111 31.6864 823.536 30.6145 824.114 29.6226C824.071 29.6954 824.04 29.7852 823.977 29.8636C824.087 29.6505 824.209 29.4544 824.351 29.2529C824.521 29.0234 824.574 28.7648 824.478 28.4657C824.375 28.189 824.091 27.8603 823.772 27.6832C823.103 27.3176 822.14 27.2763 821.793 27.7577Z" fill="#D3CBCF"/>
<path d="M886.526 22.5118C887.557 19.2673 888.501 15.9659 889.95 12.8708C890.18 12.3614 889.604 11.6266 888.878 11.3793C888.075 11.0921 887.354 11.3505 887.123 11.8599C885.686 14.9719 884.751 18.2509 883.711 21.5178C883.545 22.0502 884.013 22.7336 884.784 23.0093C885.542 23.268 886.372 23.0611 886.526 22.5118Z" fill="#D3CBCF"/>
<path d="M1736.88 555.964C1757.41 540.702 1778.49 524.282 1791.3 504.8C1797.52 495.318 1800.35 485.659 1802.2 475.762C1804.1 465.497 1804.62 454.43 1810.85 444.445C1814.33 438.859 1819.25 433.731 1824.85 429.104C1827.71 426.73 1830.73 424.501 1833.9 422.367C1835.52 421.267 1837.19 420.207 1838.85 419.165C1840.14 418.365 1841.69 416.966 1843.14 416.494C1845.14 415.838 1844.43 413.593 1842.43 414.249C1840.09 415.016 1838.86 416.272 1836.91 417.534C1834.15 419.327 1831.37 421.088 1828.73 422.987C1823.45 426.766 1818.59 430.909 1814.43 435.404C1810.48 439.693 1807.26 444.341 1805.16 449.182C1802.99 454.202 1802.05 459.408 1801.09 464.468C1799.08 475.087 1798.05 485.893 1792.94 496.41C1787.74 507.1 1778.91 517.148 1769.32 526.258C1758.75 536.294 1746.82 545.511 1734.74 554.494C1733.13 555.689 1735.29 557.166 1736.88 555.964Z" fill="#DCD3D7"/>
<path d="M1776.67 514.562C1760.83 520.386 1744.81 511.116 1737.04 503.556C1733.02 499.649 1729.22 494.666 1729.65 489.089C1729.8 486.985 1730.75 484.824 1732.79 483.01C1735.16 480.918 1739.68 478.79 1743.02 478.704C1747.01 478.607 1747.01 482.576 1747.14 484.841C1747.33 487.864 1747.11 491.069 1748.14 493.885C1750.29 499.685 1760.19 502.253 1768.49 499.101C1776.67 495.985 1780.45 488.364 1778.12 482.985C1775.6 477.141 1768.76 473.056 1762.86 469.294C1757.17 465.671 1748.82 461.921 1747.09 455.92C1745.84 451.506 1747.79 446.554 1751.28 442.189C1751.9 441.428 1754.21 438.027 1755.72 437.909C1755.81 437.912 1756.61 439.268 1756.8 439.662C1759.03 444.794 1758.45 451.423 1763.07 455.568C1767.4 459.452 1776.57 460.116 1781.49 454.388C1786.51 448.545 1785.37 442.492 1783.5 437.117C1782.35 433.837 1780.84 429.842 1783.7 426.183C1785.37 424.06 1791.64 419.74 1794.98 421.014C1798.45 422.332 1796.14 427.599 1798.69 429.627C1803.25 433.277 1812.53 424.554 1813.9 421.356C1815.55 417.432 1814.53 413.5 1813.55 409.937C1812.41 405.796 1811.12 401.611 1811.16 397.177C1811.19 392.381 1813.4 387.8 1818.14 383.708C1822.08 380.298 1827.35 377.907 1832.68 376.156C1837.68 374.492 1843.86 372.987 1848.6 374.159C1852.9 375.237 1853.94 378.079 1851.56 381.386C1848.28 385.963 1839.61 391.579 1841.41 396.715C1842.24 399.083 1845.53 400.822 1848.95 400.785C1852.73 400.74 1856.62 399.01 1860.02 397.461C1864.52 395.398 1868.87 392.955 1873.62 391.381C1878.76 389.688 1883.38 390.271 1887.66 391.749C1896.31 394.734 1902 402.398 1894.62 410.169C1887.59 417.571 1875.92 417.522 1866.15 420.064C1856.21 422.646 1838.7 433.773 1851.22 439.135C1855.99 441.175 1861.89 441.974 1867.34 443.059C1872.5 444.075 1878.75 445.057 1882.39 447.885C1885.56 450.349 1883.97 455.13 1879.18 457.359C1873.92 459.803 1867 458.489 1862.17 457.721C1850.66 455.93 1834.96 450.779 1822.2 457.224C1813.92 461.408 1810.53 469.083 1812.14 475.211C1813.97 482.175 1822.78 486.887 1833.21 483.074C1838.06 481.313 1842.37 478.474 1847.39 477.152C1852.09 475.918 1858.07 476.384 1861.32 478.516C1866.43 481.81 1860.75 487.945 1856 491.195C1849.26 495.821 1840.96 498.013 1833.15 497.016C1827.25 496.244 1817.49 493.502 1811.84 498.476C1805.51 504.042 1811.6 508.271 1815.49 511.634C1818.09 513.894 1818.42 516.462 1814.63 519.253C1811.31 521.712 1806.67 522.055 1802.81 521.834C1795.3 521.386 1787.79 519.072 1782.22 515.893C1780.65 514.991 1778.07 517.062 1779.65 517.972C1785.43 521.289 1793.01 523.672 1800.78 524.345C1808.06 524.982 1818.17 523.004 1820.76 516.203C1823.2 509.875 1812.39 508.713 1812.56 503.245C1812.8 495.072 1829.01 499.335 1833.92 499.797C1841.44 500.534 1849.82 498.029 1856.4 493.976C1861.82 490.65 1867.56 485.326 1866.66 480.379C1865.63 474.744 1855.57 472.985 1848.45 474.403C1843.31 475.425 1838.9 478.044 1834.18 480.059C1828.04 482.676 1821.96 482.515 1818.19 478.926C1812.57 473.531 1814.64 462.879 1825.12 458.628C1831.91 455.883 1839.68 456.846 1846.02 457.759C1853.13 458.797 1859.97 460.489 1867.31 461.076C1872.53 461.489 1878.89 461.286 1883.33 457.722C1887.36 454.506 1888.86 449.867 1886.02 446.836C1882.95 443.568 1876.88 442.31 1871.76 441.21C1865.93 439.98 1859.67 439.188 1854.31 437.272C1849.94 435.692 1848.6 433.378 1852.72 429.81C1855.98 426.994 1860.08 424.497 1864.53 423.089C1869.57 421.485 1874.79 420.92 1879.93 419.825C1889.82 417.728 1899.47 412.403 1901.25 404.409C1902.87 397.225 1896.48 391.586 1888.78 389.14C1884.87 387.899 1880.29 387.186 1875.57 388.268C1870.88 389.339 1866.49 391.577 1862.27 393.61C1858.57 395.399 1853.07 398.649 1848.83 398.211C1844.36 397.771 1843.86 394.626 1845.98 391.737C1849.47 386.964 1858.32 381.19 1856.04 375.853C1853.01 368.722 1839.19 371.266 1831.02 374.1C1820.52 377.746 1810.9 384.065 1808.38 392.611C1807.12 396.897 1807.72 401.058 1808.61 405.045C1809.57 409.343 1811.56 413.632 1811.21 418.206C1811.05 420.474 1810.08 422.773 1807.73 424.682C1806.72 425.507 1803.78 427.73 1802.17 427.791C1800.43 427.862 1800.54 425.815 1800.35 424.777C1799.69 421.1 1798.32 417.103 1791.77 418.68C1787.24 419.776 1782.56 422.523 1780.31 425.801C1778 429.131 1778.39 432.627 1779.25 435.746C1780.17 439.024 1782 442.118 1781.66 445.668C1781.41 448.432 1780.43 452.018 1777.56 454.381C1773.93 457.388 1768.31 455.844 1765.87 453.754C1763.4 451.656 1762.76 448.25 1762.04 445.438C1761.41 443.037 1760.7 433.057 1754.22 435.806C1750.03 437.584 1746.97 442.662 1745.37 445.667C1743.25 449.608 1742.56 453.789 1743.83 457.468C1745.88 463.401 1753.66 467.164 1759.42 470.81C1765.47 474.643 1773.85 479.097 1775.23 485.631C1775.93 488.961 1773.72 493.279 1769.62 495.731C1764.69 498.685 1758.24 498.288 1754.38 496.01C1748 492.238 1752.36 484.059 1749.31 478.813C1746.38 473.723 1736.56 476.867 1731.46 480.578C1726.4 484.257 1725.46 489.218 1726.49 493.467C1729.19 504.7 1742.52 514.19 1756.48 517.572C1762.83 519.109 1770.24 519.455 1777.33 516.852C1779.55 516.121 1778.81 513.782 1776.67 514.562Z" fill="#DCD3D7"/>
<path d="M-175.549 634.674C-132.818 623.537 -90.291 606.701 -57.0322 578.452C-15.449 543.137 6.76423 499.537 36.6895 459.628C45.1258 448.363 54.4265 437.532 64.4132 426.874C71.1417 419.685 79.7835 410.144 90.3091 406.517C89.5562 406.132 88.8033 405.747 88.0889 405.345C87.1835 409.224 83.2216 412.64 79.6279 415.691C76.0997 418.682 72.5506 421.57 69.2797 424.74C61.2786 432.518 54.1972 440.915 47.756 449.376C38.5949 461.398 29.988 474.033 23.4733 486.677C20.1542 493.121 17.1361 499.902 16.9573 506.308C16.9382 507.07 17.868 507.444 18.8088 507.252C29.5596 505.18 40.3167 502.047 51.0043 499.073C63.7835 495.513 76.5304 491.823 89.3515 488.47C94.6277 487.091 99.9018 485.762 105.204 484.66C108.587 483.959 112.406 483.056 115.69 483.198C116.319 483.235 117.209 483.353 117.282 483.418C117.38 483.489 117.351 483.261 117.239 483.533C117.212 483.576 116.718 484.556 116.585 484.725C115.659 485.759 111.229 487.099 109.212 487.7C95.1335 491.892 80.76 494.688 66.6138 498.076C56.924 500.402 47.255 502.831 37.5894 505.483C32.5016 506.878 27.4232 508.348 22.3678 509.873C20.8995 510.321 19.0064 510.678 17.6643 511.425C16.1276 512.303 14.6238 513.904 13.3788 515.042C1.28969 525.937 -8.00941 538.547 -17.5359 550.564C-28.1542 563.975 -39.7057 576.789 -54.0885 588.275C-70.9605 601.717 -90.197 613.216 -110.731 621.964C-130.827 630.511 -151.711 636.765 -172.183 644.045C-171.459 644.202 -170.709 644.364 -169.985 644.52C-171.869 641.347 -173.401 637.559 -172.083 633.472C-171.504 631.671 -174.973 631.737 -175.552 633.538C-176.977 638.07 -175.493 642.391 -173.398 645.956C-173.009 646.608 -172.223 646.802 -171.199 646.431C-152.185 639.675 -132.881 633.821 -114.146 626.19C-95.142 618.444 -77.3364 608.612 -61.0781 596.889C-45.2109 585.477 -31.5955 572.442 -20.1565 558.394C-9.9268 545.837 -0.572866 532.82 11.2187 520.897C13.7054 518.397 16.9029 514.569 20.5043 513.15C25.5531 511.179 31.2135 509.958 36.3918 508.509C46.4539 505.72 56.5693 503.165 66.6786 500.757C81.3596 497.237 96.4004 494.463 110.949 489.878C113.594 489.042 117.686 487.926 119.403 485.754C120.454 484.425 121.367 482.499 120.216 481.386C118.859 480.055 115.734 480.343 113.493 480.574C109.188 481.027 104.824 481.985 100.522 482.982C75.3974 488.763 50.553 497.197 25.4359 503.103C23.1828 503.629 20.9182 504.127 18.6556 504.576C19.2856 504.885 19.8772 505.211 20.5072 505.52C20.6905 499.608 23.5518 493.262 26.5966 487.352C30.0665 480.619 34.2244 474.011 38.5938 467.472C48.2453 453.062 58.8409 438.683 72.2773 425.709C78.7131 419.494 89.7339 413.06 91.5447 405.302C91.8185 404.176 90.6294 403.672 89.3245 404.131C80.4482 407.2 73.0045 414.309 66.9692 420.289C58.6865 428.476 51.0161 437.091 43.884 445.798C27.6388 465.673 14.3434 486.457 0.263904 506.997C-14.1514 528.033 -29.6558 548.586 -49.195 567.65C-64.5959 582.695 -83.2399 595.704 -103.673 605.981C-126.618 617.518 -151.132 625.604 -175.678 632.004C-177.933 632.579 -177.843 635.265 -175.549 634.674Z" fill="#D7D7D7"/>
<path d="M43.3977 513.468C44.8041 502.107 54.408 490.543 65.5176 481.469C76.9869 472.109 91.7151 463.931 106.701 460.693C114.664 458.967 122.114 459.097 128.927 460.85C137.659 463.112 145.171 466.409 155.862 464.433C165.398 462.678 174.744 459.048 184.228 456.713C191.475 454.938 198.83 454.272 205.588 454.928C217.965 456.153 227.962 462.044 229.742 471.908C231.847 483.625 223.792 497.896 208.395 505.571C201.331 509.09 193.664 511.293 186.115 512.977C178.324 514.714 170.407 515.467 162.732 518.392C148.454 523.822 140.847 534.827 128.981 542.732C112.316 553.836 89.183 555.4 72.9518 551.808C64.3485 549.909 56.214 546.273 52.041 540.245C47.892 534.274 47.5913 526.61 44.1089 520.34C43.2496 518.814 39.6363 520.324 40.5219 521.856C43.7603 527.66 44.2964 534.572 47.59 540.337C50.9074 546.158 57.0426 550.12 64.4014 552.712C79.0015 557.846 98.3491 557.78 116.218 551.87C124.293 549.211 131.256 544.998 137.495 539.804C143.234 535.022 148.243 529.646 154.754 525.441C162.872 520.206 171.384 518.699 180.468 516.952C188.57 515.384 196.812 513.407 204.66 510.208C221.033 503.542 231.436 491.707 233.469 478.643C235.199 467.48 229.24 458.411 217.64 454.3C204.456 449.621 189.076 452.207 173.461 456.915C168.005 458.551 162.505 460.256 156.994 461.364C150.528 462.658 145.109 462.105 139.696 460.597C131.575 458.36 124.043 455.757 114.295 456.666C99.1836 458.067 83.6245 465.243 71.0053 473.867C58.2206 482.612 46.86 493.882 41.8553 505.877C40.669 508.703 39.9909 511.48 39.6459 514.251C39.4215 516.168 43.1901 515.311 43.3977 513.468Z" fill="#D7D7D7"/>
<path d="M59.7533 504.604C66.2832 490.906 83.1042 480.201 96.9354 470.573C98.7844 469.29 96.9927 467.342 95.1308 468.646C80.8378 478.583 63.4887 489.751 56.7233 503.93C55.8974 505.658 58.9144 506.354 59.7533 504.604Z" fill="#D7D7D7"/>
<path d="M66.2306 509.664C80.8736 518.715 101.227 527.642 123.414 519.653C125.958 518.741 124.73 515.923 122.214 516.841C101.631 524.25 82.4295 515.127 68.96 506.836C67.1352 505.695 64.4058 508.523 66.2306 509.664Z" fill="#D7D7D7"/>
<path d="M125.609 500.468C153.393 491.974 181.844 493.394 209.152 481.559C211.517 480.523 210.434 477.956 208.068 478.991C181.121 490.691 152.918 489.217 125.48 497.599C123.075 498.308 123.148 501.218 125.609 500.468Z" fill="#D7D7D7"/>
<path d="M127.624 500.003C139.099 500.34 148.682 504.434 159.108 506.769C169.506 509.098 180.415 509.133 191.949 504.545C194.449 503.54 193.255 500.74 190.754 501.745C166.965 511.213 149.807 497.372 128.473 496.753C125.97 496.667 125.134 499.949 127.624 500.003Z" fill="#D7D7D7"/>
<path d="M128.127 494.914C133.742 482.825 151.313 477.745 164.744 474.258C167.056 473.651 166.973 470.931 164.635 471.532C149.958 475.353 131.047 481.098 124.949 494.235C124.11 496.033 127.275 496.734 128.127 494.914Z" fill="#D7D7D7"/>
<path d="M119.352 473.64C111.915 479.359 106.903 486.251 101.497 493.03C100.948 493.722 100.842 494.491 101.577 494.898C102.17 495.224 103.427 495.076 103.977 494.384C109.183 487.848 114 481.056 121.153 475.537C122.889 474.224 121.1 472.305 119.352 473.64Z" fill="#D7D7D7"/>
<path d="M102.035 505.494C110.154 511.414 121.557 514.02 132.212 516.799C134.442 517.394 136.307 514.243 134.077 513.647C123.706 510.933 112.701 508.418 104.779 502.658C103.079 501.439 100.364 504.282 102.035 505.494Z" fill="#D7D7D7"/>
<path d="M70.4746 508.782C67.9816 514.043 67.7755 519.639 68.6378 524.506C69.4978 529.422 71.6038 534.806 77.1797 537.026C79.0221 537.745 81.5423 535.26 79.714 534.519C74.7855 532.563 72.95 527.766 72.2464 523.386C71.5498 519.133 71.4978 514.086 73.6907 509.442C74.5232 507.655 71.335 506.951 70.4746 508.782Z" fill="#D7D7D7"/>
<path d="M97.0038 521.385C95.7731 528.324 96.5876 536.307 103.777 539.587C105.558 540.397 108.138 537.892 106.345 537.053C100.154 534.239 99.5421 527.24 100.596 521.282C100.737 520.498 100.257 519.862 99.2223 519.871C98.3031 519.931 97.1314 520.623 97.0038 521.385Z" fill="#D7D7D7"/>
<path d="M13.8165 481.565C9.0808 478.227 7.41133 472.568 6.569 467.337C5.70349 462.051 5.63609 456.41 6.54284 450.778C7.42642 445.09 9.04617 439.285 11.2016 433.545C13.2857 427.964 16.0133 422.046 20.8177 416.996C24.9216 412.698 29.432 409.911 35.6285 408.986C41.4119 408.122 47.1415 408.171 52.9627 406.465C64.0213 403.203 70.5473 395.221 76.1018 387.457C82.9022 377.933 89.7186 368.338 103.196 363.743C116.218 359.326 130.068 359.561 140.235 363.886C150.074 368.09 157.192 376.638 155.591 386.873C154.312 395.077 145.532 401.001 137.446 406.599C128.38 412.888 120.123 419.724 118.888 428.687C118.19 433.939 119.832 438.491 121.329 443.137C121.914 444.963 122.599 447.135 121.208 449.263C119.145 452.373 114.013 454.451 110.416 456.008C108.207 456.961 109.213 459.401 111.436 458.426C116.876 456.088 124.012 452.788 125.407 447.71C126.561 443.431 123.809 439.592 122.953 435.808C121.87 431.1 121.974 425.921 125.381 420.849C128.062 416.845 132.379 413.493 136.698 410.415C145.016 404.492 154.766 398.675 158.131 390.267C162.073 380.432 156.944 370.734 149.372 365.164C140.982 358.969 128.258 356.474 114.997 358.239C101.143 360.078 89.0963 366.205 80.6672 376.305C73.7009 384.668 68.7372 396.41 57.124 402.029C45.7738 407.504 33.2875 403.434 22.8118 411.421C16.4789 416.244 12.6412 422.325 9.86997 428.359C6.57208 435.556 4.40791 442.92 3.16217 450.105C2.05362 456.52 2.03687 462.892 3.1275 468.877C4.16462 474.625 6.16432 480.354 11.3483 483.988C12.8115 485.101 15.2956 482.606 13.8165 481.565Z" fill="#D7D7D7"/>
<path d="M118.511 384.715C115.239 408.307 88.8809 434.085 58.0141 438.475C55.797 438.79 55.9237 441.446 58.1408 441.132C90.4074 436.539 118.492 409.34 121.891 384.633C122.137 382.911 118.76 382.945 118.511 384.715Z" fill="#D7D7D7"/>
<path d="M97.8952 385.397C92.6257 395.694 85.1665 405.691 76.2466 414.634C74.7777 416.117 77.1841 417.464 78.6764 415.987C87.8107 406.857 95.4738 396.599 100.853 386.066C101.668 384.383 98.7458 383.698 97.8952 385.397Z" fill="#D7D7D7"/>
<path d="M46.7286 410.795C43.7435 414.966 42.5598 419.53 42.1712 423.803C41.7883 427.93 42.2102 432.16 44.131 435.591C44.9461 437.042 48.2858 435.617 47.4707 434.166C45.7019 430.989 45.3391 427.164 45.6349 423.36C45.9344 419.459 47.1031 415.283 49.8132 411.469C51.0365 409.753 47.9385 409.101 46.7286 410.795Z" fill="#D7D7D7"/>
<path d="M22.6684 420.552C20.2835 427.448 18.9959 434.456 19.0275 441.129C19.0466 447.502 20.2436 454.178 25.1493 458.556C26.4672 459.732 29.5179 457.712 28.2 456.536C23.5139 452.355 22.5711 445.957 22.6032 439.867C22.6323 433.554 23.9146 426.966 26.1436 420.458C26.7777 418.662 23.291 418.728 22.6684 420.552Z" fill="#D7D7D7"/>
<path d="M107.176 440.288C98.1185 446.898 87.0385 451.55 76.0969 454.387C65.8551 457.03 54.8448 458.431 45.8281 456.277C43.7112 455.774 41.8831 458.679 44 459.181C53.5922 461.484 65.3342 460.081 76.2344 457.261C87.8197 454.271 99.5752 449.367 109.179 442.373C111.156 440.923 109.195 438.821 107.176 440.288Z" fill="#D7D7D7"/>
<path d="M84.1457 441.417C77.8534 444.998 73.8034 450.071 69.9125 455.155C69.3731 455.86 69.8855 456.653 70.6159 456.815C71.5166 457.015 72.4292 456.513 72.9312 455.823C76.5005 451.178 80.2141 446.613 85.9316 443.341C86.7694 442.872 86.9633 441.871 86.5139 441.383C85.9933 440.831 84.9965 440.926 84.1457 441.417Z" fill="#D7D7D7"/>
<path d="M99.111 404.727C98.0593 410.857 96.2503 417.089 96.0294 423.133C95.9658 424.874 99.4408 424.103 99.5044 422.362C99.7295 416.538 101.492 410.564 102.499 404.643C102.625 403.891 102.166 403.278 101.19 403.283C100.336 403.314 99.2373 403.974 99.111 404.727Z" fill="#D7D7D7"/>
<path d="M78.445 390.51C79.0769 396.434 79.7087 402.359 80.3405 408.283C80.533 409.996 84.1226 409.218 83.9439 407.483C83.3121 401.558 82.6802 395.634 82.0484 389.709C81.8813 388.002 78.2664 388.775 78.445 390.51Z" fill="#D7D7D7"/>
</g>
</svg>
