<svg xmlns="http://www.w3.org/2000/svg" width="1920" height="898" fill="none" xmlns:v="https://vecta.io/nano"><mask id="A" maskUnits="userSpaceOnUse" x="-1" y="0" width="1921" height="898" mask-type="alpha"><path fill="#e3f1e9" d="M0 0h1920v898H0z"/></mask><g mask="url(#A)"><path d="M210.198 54.053c-10.673-2.484-23.879-6.953-23.855-16.093.03-6.203 5.234-11.963 7.782-17.801 4.899-11.232-1.008-23.448-11.149-32.117-10.407-8.908-25.768-15.135-42.23-16.918-8.084-.884-16.461-.657-24.426.875-7.998 1.533-15.668 4.339-22.766 7.342C77.762-13.954 63.684-5.025 52.28 5.118c-11.199 9.968-20.312 21.518-23.833 33.959-1.612 5.743-2.052 11.744-.67 17.499 1.675 6.917 6.472 13.268 12.81 18.594 12.973 10.891 32.489 18.087 52.32 21.097 19.781 2.978 40.225-.76 54.764-11.042 7.595-5.37 12.711-11.938 17.681-18.535 2.524-3.339 5.511-6.906 10.943-8.171 5.353-1.251 10.824-.109 15.737 1.332 4.228 1.258 8.239 2.838 12.466 4.074.751.225 1.474.057 1.946-.429 2.087-2.234 4.569-4.256 5.886-6.794.612-1.211-2.168-1.635-2.78-.424-1.194 2.332-3.695 4.252-5.609 6.313l1.946-.43c-7.883-2.297-15.653-6.241-24.616-6.154-11.146.119-15.836 6.325-20.399 12.46-4.874 6.527-10.695 12.812-18.757 17.701-7.696 4.664-17.186 7.761-27.207 8.746-20.525 2.03-42.368-3.925-58.501-12.201-8.247-4.234-15.521-9.487-20.415-15.79-4.574-5.897-6.447-12.391-6.142-19.142.544-12.397 7.914-24.378 17.661-34.72C57.731 2.232 71.077-7.328 86.166-14.891c13.509-6.762 29.099-12.697 45.983-12.514 16.819.185 33.126 5.529 44.726 13.737 11.253 7.982 19.018 20.064 15.13 31.559-1.981 5.878-6.761 11.209-8.204 17.195-1.557 6.529 2.804 12.353 10.403 16.01 4.629 2.226 9.914 3.666 15.242 4.892 1.825.418 2.48-1.537.753-1.936zm-9.671 1.064c-6.081-1.881-12.428-3.402-18.243-5.665-2.834-1.094-5.51-2.396-7.805-4.005-2.561-1.827-4.256-4.088-5.966-6.337-5.339-7.126-8.112-15.087-14.127-21.966-11.237-12.819-32.558-20.669-53.945-21.901-11.942-.686-24.049.762-34.882 4.597-1.677.594-.178 2.283 1.483 1.701 19.586-6.917 43.247-5.357 61.792 1.727 9.866 3.773 18.379 9.173 23.986 16.007 5.589 6.801 8.307 14.549 13.639 21.448 3.284 4.253 7.157 7.491 13.158 10.008 6.134 2.559 13.004 4.156 19.529 6.17 1.676.517 3.074-1.259 1.381-1.786zm-32.311-5.879c-32.987-3.312-68.221-3.414-98.43-13.975-8.767-3.062-16.731-7.018-23.537-11.901-1.262-.912-3.25.56-1.988 1.472 24.597 17.6 61.269 21.322 95.034 23.989l28.263 2.356c1.793.195 2.467-1.758.658-1.941zm-16.421-12.135C131.504 19.445 98.25 10.462 66.174 8.95c-1.842-.092-1.767 1.91.058 1.991 30.935 1.455 63.514 10.176 83.087 27.209 1.12.997 3.596-.05 2.476-1.047zm-28.066-4.229c-13.303-1.187-25.695-5.127-36.799-10.111-1.532-.689-2.911 1.093-1.379 1.783 11.286 5.058 23.972 9.08 37.503 10.283 1.81.161 2.517-1.794.675-1.954zm33.858 24.474c-14.294 3.046-28.994 5.562-43.935 5.397-15.996-.189-30.681-3.839-44.721-8.75-9.792-3.423-19.75-7.53-25.513-14.212-.941-1.101-3.41-.034-2.469 1.067 5.007 5.79 13.03 9.785 21.388 13.025 7.783 2.997 15.962 5.701 24.445 7.65 14.351 3.321 29.468 3.954 44.534 2.319 9.176-1.008 18.17-2.664 27.059-4.567 1.775-.392.988-2.299-.787-1.93zm-4.617 7.881c-10.431 8.091-24.057 13.898-39.35 15.944-17.392 2.311-34.962-.333-48.985-7.56-8.46-4.371-15.639-9.805-23.291-14.82-1.322-.863-3.322.595-1.984 1.469C53.591 69.59 67.017 80.228 87.217 83.02c15.512 2.142 31.809.619 46.054-4.519 8.246-2.974 15.567-7.105 21.781-11.913 1.236-.984-.83-2.332-2.082-1.359zm-45.134 6.273c-10.176.27-20.386-1.188-28.394-5.638-1.42-.794-3.407.678-1.987 1.471 8.602 4.793 19.452 6.469 30.423 6.165 1.866-.044 1.808-2.053-.042-1.998zm25.693-16.742c-12.375-.026-24.534-1.502-36.51-3.39-1.792-.285-2.465 1.664-.673 1.949 12.204 1.926 24.623 3.417 37.225 3.436 1.866.001 1.808-1.983-.042-1.995zM70.628 44.73c-6.345-1.986-12.607-3.941-17.275-7.631-1.217-.949-3.209.526-1.993 1.476 4.835 3.821 11.361 5.881 17.919 7.941 1.644.517 3.041-1.258 1.349-1.785zm-3.729-22.822c-5.936-1.701-11.559-3.818-17.511-5.507-1.689-.481-3.068 1.302-1.379 1.783 5.936 1.7 11.559 3.818 17.511 5.506 1.705.47 3.084-1.291 1.379-1.783zm112.539 8.238c-3.143-9.426-5.324-19.403-13.943-27.249-9.071-8.252-22.652-14.183-37.205-16.571-8.463-1.391-17.268-1.65-25.968-1.085-1.853.123-1.795 2.116.058 1.993 19.66-1.277 38.09 2.242 52.931 11.149 6.733 4.038 11.813 8.975 14.9 14.81 2.983 5.657 4.479 11.676 6.458 17.544.428 1.257 3.18.653 2.769-.592zm.993-26.497c-3.675-4.623-7.336-9.325-12.346-13.33-5.111-4.092-11.589-6.963-19.089-8.521-1.756-.367-2.433 1.593-.677 1.961 7.271 1.52 13.374 4.413 18.238 8.433 4.596 3.778 7.956 8.217 11.393 12.53.897 1.119 3.362.059 2.481-1.073zm43.003 122.483c2.825-5.936 2.694-13.225-.248-19.034-2.029-3.998-6.735-9.189-14.011-8.014-6.372 1.035-9.102 6.37-9.065 10.393.051 4.519 1.843 9.291 5.149 13.149 1.628 1.902 3.838 3.764 6.8 4.724 3.109 1.012 6.409.778 9.507-.25 1.686-.557.194-2.238-1.476-1.692-11.109 3.668-16.308-8.961-16.998-14.25-.439-3.402.339-7.845 5.227-9.738 5.561-2.161 10.208 2.661 11.787 5.657 3.021 5.75 3.354 12.729.545 18.653-.581 1.212 2.203 1.636 2.783.402z" fill="#e1d4db"/><path d="M221.351 125.771c-3.446-3.997-4.994-8.638-6.733-13.116-.474-1.239-3.25-.637-2.759.591 1.808 4.633 3.474 9.44 7.038 13.581.925 1.091 3.411.034 2.454-1.056zm-19.338 5.134c-4.379-2.172-8.854-4.25-13.518-6.143-5.32-2.166-11.264-4.54-17.497-5.155-2.197-.217-4.647-.2-6.55.748-2.095 1.045-2.691 2.868-2.658 4.549.045 2.639 1.099 5.407 3.399 7.483 2.633 2.382 6.428 3.973 10.465 4.947 8.644 2.079 20.753 1.616 26.241-4.382 1.006-1.091-1.535-1.998-2.526-.918-4.277 4.687-13.906 5.042-20.74 3.835-3.768-.667-7.439-1.912-10.125-3.863-2.42-1.756-3.526-4.071-3.808-6.489-.088-.788-.112-1.622.239-2.389.213-.48.638-.91 1.038-1.114 1.263-.658 3.147-.602 4.857-.393 5.552.658 10.773 2.715 15.567 4.626 2.824 1.135 5.585 2.339 8.299 3.578l3.159 1.486 1.333.649.84.415c1.481.723 3.483-.736 1.985-1.47z" fill="#e1d4db"/><path d="M199.8 131.918c-6.174-.685-12.015-2.216-17.96-3.417-1.763-.354-2.437 1.597-.673 1.951 5.945 1.201 11.786 2.732 17.959 3.417 1.809.206 2.498-1.757.674-1.951zm-9.308-21.064c-1.094-5.166-2.511-10.853-7.311-15.004-2.934-2.534-7.314-5.082-12.075-5.663-2.038-.244-4.177-.045-5.772.974-1.834 1.173-2.334 2.974-2.481 4.606-.363 4.26 3.453 8.079 7.835 10.718 4.796 2.885 11.085 5.15 17.576 5.42 1.838.069 1.763-1.929-.058-1.987-4.734-.187-9.411-1.777-13.202-3.63-4.104-2.013-7.924-4.838-9.05-8.364-.715-2.216-.311-6.206 4.201-5.81 3.941.334 7.612 2.508 10.155 4.478 4.872 3.799 6.271 9.43 7.308 14.338.264 1.258 3.138 1.183 2.874-.075z" fill="#e1d4db"/><path d="M188.876 109.376c-3.891-2.54-7.35-5.353-11.241-7.893-1.33-.868-3.343.599-1.996 1.478 3.891 2.54 7.35 5.353 11.241 7.893 1.347.879 3.343-.599 1.996-1.478z" fill="#e1d4db"/><path d="M1681.84 19.269c25.36 6.891 62.53 7.061 87.42-9.388.68-.446.66-1.157.2-1.568-5-4.339-13.43-6.305-20.97-7.914-9.01-1.932-17.97-3.011-27.95-2.469-9.19.497-17.5 2.314-26.09 5.882-4.31 1.78-8.46 3.811-12.55 5.888l-5.47 2.835c-1.27.67-2.95 1.267-3.81 2.246-.5.577-.26 1.182.37 1.463 2.73 1.296 5.92 1.977 8.85 3.025 1.62.573 3.38-1.425 1.75-2.005-2.93-1.048-6.12-1.729-8.85-3.001l.37 1.463c.57-.658 3.1-1.617 4.12-2.149l5.14-2.64c3.69-1.865 7.44-3.683 11.33-5.282 8.28-3.429 16.24-5.082 25.1-5.533 9.26-.474 17.52.554 25.89 2.307 7.29 1.511 15.58 3.384 20.42 7.576l.2-1.568c-11.98 7.917-27.35 11.514-41.94 12.545-14.53 1.031-29.03-.254-41.8-3.726-1.68-.445-3.45 1.552-1.73 2.013z" fill="#dbdbdb"/><path d="M1677.57 15.871c15.81-2.817 31.7-4.323 47.45-5.09 6.78-.329 13.56-.896 20.36-1.368 7.1-.485 14.42-.823 20.92.624 1.76.389 2.79-1.804 1.04-2.194-6.27-1.381-13.34-1.181-20.18-.748l-21.84 1.464c-16.04.788-32.14 2.36-48.24 5.222-1.98.358-1.44 2.446.49 2.088zm80.67-4.635c-16.42 3.477-33.15 7.241-49.59 7.072-1.89-.022-2.15 2.165-.25 2.187 16.67.172 33.68-3.651 50.34-7.187 1.93-.409 1.42-2.466-.5-2.072zm-24.12-7.556c-9.4-.192-18.83 1.284-28.33 2.902-1.95.324-1.41 2.398.51 2.066 9.28-1.575 18.43-2.967 27.58-2.787 1.89.062 2.13-2.143.24-2.182z" fill="#dbdbdb"/><path d="M1704.14 13.267c-4.05-.083-8.01-.517-12.14-.328-.82.03-1.58.623-1.65 1.22-.08.613.57 1.056 1.41 1.01 4.13-.189 8.09.245 12.14.328.82.01 1.59-.663 1.65-1.22.05-.645-.61-.983-1.41-1.01zM1655.03-.59c27.9-2.763 62.49-14.594 75.84-35.447.39-.591-.25-1.081-.87-1.237-7.4-1.808-16.66-.572-24.74.622-8.93 1.322-17.31 3.158-25.75 6.451-8.47 3.302-15.39 7.298-21.46 12.888-3.11 2.876-5.9 5.921-8.58 9.003l-3.57 4.144c-.82.978-2.04 1.993-2.25 3.082-.09.419.35.935.96.962 3.45.161 6.93-.339 10.42-.467 1.87-.07 2.12-2.191.25-2.121-3.22.108-6.51.62-9.68.5l.96.962c.14-.685 2.06-2.395 2.72-3.15l3.37-3.89c2.44-2.766 4.97-5.496 7.79-8.094 5.81-5.343 12.63-9.087 20.71-12.208 8.07-3.105 16.15-4.792 24.67-6.023 7.62-1.102 16.25-2.229 23.19-.534l-.88-1.237c-6.43 10.028-18.66 17.75-31.65 23.231-12.94 5.458-27.22 9.072-41.18 10.45-1.89.184-2.14 2.306-.27 2.114z" fill="#dbdbdb"/><path d="M1648.67-1.738c13.42-7.478 27.68-13.901 42.32-19.686 6.03-2.378 11.9-5.003 17.86-7.493 5.98-2.498 12.3-4.972 18.82-5.872 1.85-.259 2.12-2.371.25-2.12-12.81 1.766-24.41 8.341-36.13 12.939-15.33 5.994-30.3 12.657-44.33 20.479-1.59.892-.38 2.645 1.21 1.753zm72.23-29.038c-13.06 7.909-26.27 16.189-41.51 21.275-1.77.586-1.29 2.58.49 1.979 15.76-5.252 29.34-13.697 42.86-21.877 1.55-.936-.31-2.297-1.84-1.376zm232.88-63.692c18.71 19.05 33.81 39.879 48.79 60.283 6.52 8.871 12.65 17.92 17.65 27.179 4.63 8.62 8.75 17.799 9.06 26.705.16 4.243-.07 10.596-6.39 12.138-4.73 1.151-10.84-.526-15.68-1.731-8.56-2.149-22.79-7.185-27.91-.232-2.77 3.781-1.64 8.626-.03 12.956 2.2 5.85 5.52 11.555 8.2 17.309 2.58 5.586 5.35 11.927 3.74 17.47-1.64 5.62-9.14 9.124-17.36 8.785-9.46-.403-18.49-5.429-26.15-9.56-7.22-3.914-14.61-8.497-23.03-10.705-8.61-2.243-15.74.021-21.51 3.814-7.63 4.991-12.93 11.576-19 17.529-6.1 5.997-12.71 10.911-22.51 13.903-7.54 2.304-20.27 4.952-27.64-.973-7.99-6.424-5.36-16.746-3.24-23.503 2.71-8.662 7.06-16.9 11.02-25.177 1.58-3.299 3.11-6.607 4.38-9.979.34-.927-1.13-1.84-2.34-1.862-8.51-.144-17.35-1.454-25.76-3.309-8.24-1.82-18.5-4.538-24.27-9.761-6.78-6.133-.66-12.765 5.67-16.303 8.24-4.642 18.68-7.212 28.23-10.418 9.7-3.246 20.59-7.327 24.04-15.129.33-.744-.03-1.566-1.17-2.031-11.68-4.846-24.46-8.604-35.09-14.816-4.03-2.346-8.8-5.637-8.8-9.415 0-5.356 8.51-8.872 14.12-10.866 9.63-3.425 20.6-4.773 31.31-6.335 7.55-1.112 19.43-1.298 21.21-7.933.41-1.52-.51-2.328-1.91-3.512-2.41-2.095-1.74-4.689-1.91-7.14-.12-1.315-.72-3.425.21-4.56 1.01-1.289 4.34-1.627 6.21-1.999 11.75-2.412 24.06-3.625 36.13-5.439 6.68-1.021 13.63-1.539 20.38-2.445l21.51-3.127c2.51-.388.94-3.25-1.59-2.882-12.84 1.955-25.75 3.731-38.81 5.191-6.21.689-12.3 1.771-18.45 2.554-6.16.783-12.32 1.599-18.28 2.804-4.36.866-10.61 1.482-11.52 5.224-.44 1.898.05 4.055.17 6.025.18 2.418-.22 4.828 2.17 6.968.43.4 1.56.93 1.62 1.378.3 1.801-4.05 3.794-5.84 4.183-5.11 1.146-10.91 1.592-16.24 2.361-11.41 1.635-22.94 3.415-32.72 7.619-5.26 2.258-11.1 5.754-11.89 10.543-.6 3.632 2.16 7.118 5.82 9.932 10.97 8.441 27.09 12.739 40.57 18.29l-1.17-2.031c-3.54 8.054-15.74 11.773-25.72 14.999-10.2 3.321-21.71 6.195-29.36 12.088-5.38 4.152-8.7 10.5-3.54 16.414 5.01 5.77 14.87 9 23.2 11.191 10.26 2.719 21.38 4.488 31.89 4.652l-2.33-1.862c-3.14 8.347-7.69 16.263-11.31 24.47-3.3 7.56-6.8 15.688-6.03 24.058.64 6.852 4.69 14.456 15.18 16.714 9.73 2.098 19.96-.527 27.84-3.457 9.48-3.505 15.76-9.167 21.79-15.279 5.97-6.056 11.58-13.288 20.43-17.397 8.13-3.789 16.63-.811 24.8 3.297 8.5 4.287 16.41 9.405 25.6 12.879 8.46 3.205 17.41 4.22 25.23 1.347 6.63-2.425 10.02-7.048 10.12-12.569.22-12.266-10.72-23.874-13.58-35.974-.83-3.463-.92-8.718 4.63-9.614 4.9-.782 11.17 1.294 15.99 2.544 10.5 2.73 24.52 6.165 29.02-2.65 3.29-6.454 1.45-14.638-.91-21.608-3.24-9.636-8.52-19.065-14.48-28.218-5.79-8.935-12.33-17.676-19.08-26.354-8.51-11.005-16.58-22.18-25.67-32.989-4.61-5.477-9.46-10.846-14.64-16.094-1.42-1.709-4.71-.224-3.07 1.443z" fill="#dbdbdb"/><path d="M1953.28-98.621c-5.72 25.949-21.17 49.456-35.08 72.841l-21.89 36.714-23.87 38.452c-4.21 7.049-8.26 14.177-12.03 21.391-1.88 3.591-3.7 7.211-5.42 10.849-1.8 3.761-2.86 7.674-4.61 11.443-.78 1.74 3.09 3.243 3.9 1.491 1.4-3.103 2.23-6.365 3.65-9.446a293.9 293.9 0 0 1 4.83-9.889c3.36-6.577 6.95-13.078 10.7-19.498 7.65-13.119 15.89-26.024 23.99-38.957 7.89-12.597 15.33-25.348 22.85-38.081 7.03-11.908 14.34-23.73 20.85-35.854 6.98-13.057 13.15-26.502 16.26-40.671.46-1.867-3.71-2.629-4.13-.786z" fill="#dbdbdb"/><path d="M1886.55 69.221a249.17 249.17 0 0 1-3.86-16.542c-1.25-6.253-2.46-12.615-2.35-18.8.02-1.434-2.31-2.487-3.71-1.41-9.29 7.098-20.28 12.944-29.38 20.162-1.66 1.313 1.66 3.402 3.32 2.09 9.1-7.218 20.09-13.064 29.38-20.161l-3.71-1.41c-.13 6.313.99 12.744 2.27 19.103a258.92 258.92 0 0 0 3.95 16.976c.5 1.882 4.61 1.895 4.09-.007zm51.23-10.564c-19.29-18.558-26.56-39.881-33.21-61.137-.25-.823-1.54-1.79-2.8-1.429-19 5.689-38.47 10.68-57.54 16.256-2.31.66-.77 3.507 1.56 2.835l57.55-16.256-2.8-1.429c6.82 21.733 14.28 43.618 34.03 62.61 1.62 1.607 4.88.166 3.21-1.45zm27.69-41.868c-17.61-16.735-26.64-36.785-35.28-55.9-.42-.955-2.15-1.344-3.14-.899-17.1 7.55-38.37 9.707-55.47 17.225-2.09.917.39 3.463 2.51 2.535 17.08-7.538 38.36-9.675 55.47-17.225l-3.14-.899c8.78 19.374 17.98 39.671 35.81 56.628 1.68 1.587 4.92.123 3.24-1.464zm19.68-33.998c-10.34-18.077-23.77-35.334-35.05-53.191-.43-.707-1.64-1.327-2.66-1.04-17.9 4.911-38.95 3.258-56.43 8.92-2.27.731.25 3.241 2.48 2.521 17.12-5.55 37.93-3.792 55.48-8.636l-2.66-1.04c11.28 17.825 24.71 35.114 35.04 53.191 1.04 1.806 4.82 1.062 3.8-.724z" fill="#dbdbdb"/><path d="M879.171 24.762c-11.72-7.021-25.492-13.683-39.248-15.547-13.048-1.774-23.187 2.321-28.014 10.39-4.396 7.344-4.978 16.479-4.351 25.243.704 9.796 3.106 20.1 8.067 29.986 3.528 6.996 8.561 14.594 17.816 18.684 8.079 3.581 16.844 3.409 24.326 2.149 9.125-1.528 17.274-4.712 24.771-8.306 7.052-3.35 14.243-7.104 19.796-11.745 7.147-5.97 10.389-14.355 5.82-23.761-5.264-10.837-17.187-18.937-28.172-27.091-1.478-1.094-3.498.107-2.008 1.219 9.338 6.924 19.413 13.646 25.322 22.463 5.104 7.598 5.328 15.236.726 21.299-4.213 5.51-11.343 9.349-18.089 12.959-6.583 3.506-13.626 6.671-21.357 8.911-6.995 2.038-15.161 3.607-23.649 2.042-8.773-1.629-14.99-6.895-19.111-13.061-5.722-8.523-8.624-17.798-10.234-26.535-1.665-9.047-2.047-18.263.274-26.537 2.575-9.215 9.838-16.98 23.786-16.506 14.431.483 29.835 8.056 42.125 15.407 1.661.984 3.044-.672 1.404-1.661zm9.87-1.348c-2.882-2.051-5.601-4.471-6.611-7.238-.834-2.288-.318-4.458.725-6.326 2.448-4.363 7.172-7.585 11.008-11.111 2.004-1.827 3.915-3.75 5.016-6.102l-2.867-.736c-1.126 10.717 3.318 25.163-9.763 30.735-1.441.618.679 2.472 2.132 1.871 13.806-5.892 9.357-20.844 10.552-32.128.133-1.274-2.408-1.755-2.881-.753-2.133 4.5-7.274 7.674-11.039 11.201-3.633 3.41-7.458 7.684-5.839 13.023 1.013 3.334 4.126 6.336 7.569 8.802 1.508 1.068 3.53-.135 1.998-1.237z" fill="#d3cbcf"/><path d="M888.242 23.286c7.675-5.133 18.324-8.704 30.289-5.686l-1.379-1.968c-2.664 3.698-7.801 5.932-13.092 7.185s-11.777 1.707-17.805-.411c-1.945-.674-2.687 1.456-.742 2.13 6.695 2.345 13.779 1.983 19.727.655 5.894-1.335 11.687-3.864 14.614-7.985.533-.761-.203-1.667-1.379-1.968-12.738-3.216-24.323.576-32.49 6.023-1.313.916.931 2.924 2.257 2.026z" fill="#d3cbcf"/><path d="M886.283 23.828c-15.949-6.254-23.927-21.052-18.134-31.542l-2.279.098c2.864 2.374 5.98 4.561 8.825 6.94 2.704 2.244 5.568 4.812 6.302 7.688.355 1.374 2.981 1.255 2.656-.107C882.098.77 873.268-4.249 867.765-8.808c-.848-.692-1.911-.567-2.279.098-6.329 11.494 2.882 27.632 20.146 34.408 1.7.685 2.358-1.206.651-1.87zm-46.162-5.589c-1.37 1.35-1.561 3.209-1.833 4.989-.034.253.215.631.465.847s.665.427 1.03.469c.397.054.784.029 1.03-.161.279-.178.356-.402.385-.694-.003.062-.049.298 0 0 .003-.062.027-.129.03-.191l.044-.337.121-.662.271-1.15c.042-.174.117-.336.191-.499.043-.073.074-.163.117-.235.016-.045.031-.09.059-.118.094-.168-.137.241-.043.073a5.66 5.66 0 0 1 .682-.877c.408-.396.079-1.219-.609-1.579-.721-.371-1.517-.316-1.94.125zm25.534 10.285c-.154 1.023-.554 1.971-1.032 2.879-.036.051-.051.096-.087.146.079-.124.044-.073-.008.023-.059.118-.13.22-.19.338l-.424.648-.944 1.362c-.321.456-.156 1.188.615 1.59.673.368 1.641.409 1.998-.097 1.265-1.818 2.599-3.676 2.941-5.875.049-.3.042-.543-.179-.851a1.99 1.99 0 0 0-.902-.652c-.708-.215-1.698-.087-1.788.49zm27.827 16.31l.043.661c.001.102.002.203-.017.31-.003.062-.018.107-.022.169.005.039-.038.214-.008.023s-.012-.017-.007.022c-.004.062-.019.107-.023.169-.019.107-.057.22-.076.327-.05.197-.133.383-.215.569l-.134.281c-.086.146 0 0 .024-.067-.036.05-.052.096-.087.146l-.384.533c-.135.18-.302.348-.449.51l-.29.263c-.076.062-.252.15.02-.005-.068.039-.104.09-.172.129-.247.19-.409.398-.386.697-.001.265.184.622.468.851.556.439 1.568.712 2.082.327.928-.744 1.671-1.579 2.146-2.586.408-.866.546-1.842.435-2.831-.055-.576-.665-1.225-1.495-1.344-.764-.096-1.513.231-1.453.847zm-48.645-9.684c-.738 1.615-1.479 3.291-1.275 5.192.053.57.657 1.212 1.477 1.33.737.101 1.496-.229 1.438-.838-.06-.448-.037-.878.006-1.313-.005-.039.011-.084.026-.128-.009.285-.018.106-.015.044l.056-.318c.037-.212.107-.413.156-.608.246-.814.6-1.577.953-2.339.241-.49-.336-1.26-1.066-1.483-.818-.28-1.499-.073-1.756.461zm22.875 11.317c-.242 1.589-.982 3.051-1.663 4.496-.23.51.338 1.268 1.073 1.493.812.265 1.518.051 1.756-.481.66-1.44 1.401-2.901 1.663-4.496.049-.298.042-.539-.177-.845a1.98 1.98 0 0 0-.896-.648c-.374-.121-.79-.169-1.097-.065-.3.082-.618.271-.659.546zm-43.733-4.296c-.43 2.792-1.301 5.464-1.73 8.256-.082.545.238 1.221 1.061 1.478.688.233 1.66.107 1.737-.477.43-2.792 1.301-5.464 1.731-8.256.081-.545-.239-1.221-1.062-1.478-.675-.217-1.648-.091-1.737.477zm23.215 11.575c-.202 1.453.01 2.992-.192 4.445-.033.249.21.621.456.833s.652.42 1.01.461c.389.053.77.028 1.012-.158.273-.175.349-.396.378-.683.202-1.453-.01-2.992.192-4.445.033-.249-.211-.621-.456-.833a2.08 2.08 0 0 0-1.01-.461c-.39-.053-.771-.028-1.012.159-.261.192-.35.396-.378.683zm30.976 9.072c-1.27 1.814-2.307 3.75-3.811 5.442-.39.437-.092 1.223.62 1.606.745.395 1.611.384 2.017-.099 1.491-1.709 2.54-3.628 3.81-5.442.325-.461.158-1.2-.619-1.606-.688-.348-1.665-.39-2.017.099zm-46.161-.647c-.285 1.913-1.036 3.671-1.341 5.589-.049.296-.042.536.175.839.182.253.55.535.889.643.69.234 1.666.108 1.743-.478.285-1.913 1.037-3.671 1.342-5.589a.99.99 0 0 0-.176-.839c-.182-.253-.55-.535-.889-.643-.678-.217-1.653-.091-1.743.478zm25.369 6.826l-2.301 5.396c-.179.517.308 1.26 1.077 1.497.782.254 1.555.063 1.761-.482.671-1.833 1.47-3.62 2.301-5.396.231-.511-.339-1.272-1.077-1.497-.814-.266-1.522-.052-1.761.482zm-23.774 10.707l-2.196 4.723c-.231.512.34 1.274 1.079 1.5.816.266 1.525.052 1.765-.483l2.195-4.723c.232-.512-.34-1.274-1.078-1.5-.796-.272-1.505-.057-1.765.483zm-14.473-6.1c.061.447.038.878-.005 1.313a.31.31 0 0 1-.027.128c.009-.285.019-.106.016-.045l-.056.318c-.038.212-.107.413-.157.608-.246.814-.599 1.577-.953 2.34-.229.507.336 1.26 1.066 1.483.806.263 1.508.051 1.744-.478.738-1.615 1.48-3.291 1.276-5.193-.054-.57-.657-1.212-1.477-1.33-.745-.078-1.505.251-1.427.855zm36.836 7.46c-.091.578-.266 1.138-.572 1.652.044-.073.075-.164.139-.243-.364.633-.871 1.202-1.435 1.725-.188.174-.22.532-.128.793.104.279.39.61.711.789.341.173.731.312 1.102.292a1.4 1.4 0 0 0 .893-.368c1.067-1.03 1.91-2.203 2.125-3.614.049-.3.042-.544-.179-.852a2 2 0 0 0-.904-.654c-.377-.122-.798-.171-1.108-.065-.282.077-.603.268-.644.545zm42.798-23.965c-.831 1.775-1.965 3.429-2.3 5.395-.049.298-.042.541.178.847a1.98 1.98 0 0 0 .898.65c.697.237 1.683.109 1.761-.482.303-1.977 1.469-3.619 2.3-5.395.244-.494-.339-1.271-1.076-1.497-.826-.283-1.502-.057-1.761.482zm-76.972-29.341c-.852 1.209-1.458 2.595-1.694 4.063-.049.298-.042.54.177.846a1.99 1.99 0 0 0 .897.649c.375.121.792.169 1.099.065.288-.099.606-.288.66-.547.179-1.147.604-2.219 1.182-3.211-.043.073-.074.163-.137.241a5.13 5.13 0 0 1 .374-.611c.17-.23.223-.488.127-.787a1.67 1.67 0 0 0-.706-.782c-.669-.366-1.632-.407-1.979.075zm64.733-5.246c1.031-3.245 1.975-6.546 3.424-9.641.23-.509-.346-1.244-1.072-1.491-.803-.287-1.524-.029-1.755.481-1.437 3.112-2.372 6.391-3.412 9.658-.166.532.302 1.216 1.073 1.491.758.259 1.588.052 1.742-.497z" fill="#d3cbcf"/><path d="M1736.88 555.964c20.53-15.262 41.61-31.682 54.42-51.164 6.22-9.482 9.05-19.141 10.9-29.038 1.9-10.265 2.42-21.332 8.65-31.317 3.48-5.586 8.4-10.714 14-15.341 2.86-2.374 5.88-4.603 9.05-6.737 1.62-1.1 3.29-2.16 4.95-3.202 1.29-.8 2.84-2.199 4.29-2.671 2-.656 1.29-2.901-.71-2.245-2.34.767-3.57 2.023-5.52 3.285-2.76 1.793-5.54 3.554-8.18 5.453-5.28 3.779-10.14 7.922-14.3 12.417-3.95 4.289-7.17 8.937-9.27 13.778-2.17 5.02-3.11 10.226-4.07 15.286-2.01 10.619-3.04 21.425-8.15 31.942-5.2 10.69-14.03 20.738-23.62 29.848-10.57 10.036-22.5 19.253-34.58 28.236-1.61 1.195.55 2.672 2.14 1.47z" fill="#dcd3d7"/><path d="M1776.67 514.562c-15.84 5.824-31.86-3.446-39.63-11.006-4.02-3.907-7.82-8.89-7.39-14.467.15-2.104 1.1-4.265 3.14-6.079 2.37-2.092 6.89-4.22 10.23-4.306 3.99-.097 3.99 3.872 4.12 6.137.19 3.023-.03 6.228 1 9.044 2.15 5.8 12.05 8.368 20.35 5.216 8.18-3.116 11.96-10.737 9.63-16.116-2.52-5.844-9.36-9.929-15.26-13.691-5.69-3.623-14.04-7.373-15.77-13.374-1.25-4.414.7-9.366 4.19-13.731.62-.761 2.93-4.162 4.44-4.28.09.003.89 1.359 1.08 1.753 2.23 5.132 1.65 11.761 6.27 15.906 4.33 3.884 13.5 4.548 18.42-1.18 5.02-5.843 3.88-11.896 2.01-17.271-1.15-3.28-2.66-7.275.2-10.934 1.67-2.123 7.94-6.443 11.28-5.169 3.47 1.318 1.16 6.585 3.71 8.613 4.56 3.65 13.84-5.073 15.21-8.271 1.65-3.924.63-7.856-.35-11.419-1.14-4.141-2.43-8.326-2.39-12.76.03-4.796 2.24-9.377 6.98-13.469 3.94-3.41 9.21-5.801 14.54-7.552 5-1.664 11.18-3.169 15.92-1.997 4.3 1.078 5.34 3.92 2.96 7.227-3.28 4.577-11.95 10.193-10.15 15.329.83 2.368 4.12 4.107 7.54 4.07 3.78-.045 7.67-1.775 11.07-3.324 4.5-2.063 8.85-4.506 13.6-6.08 5.14-1.693 9.76-1.11 14.04.368 8.65 2.985 14.34 10.649 6.96 18.42-7.03 7.402-18.7 7.353-28.47 9.895-9.94 2.582-27.45 13.709-14.93 19.071 4.77 2.04 10.67 2.839 16.12 3.924 5.16 1.016 11.41 1.998 15.05 4.826 3.17 2.464 1.58 7.245-3.21 9.474-5.26 2.444-12.18 1.13-17.01.362-11.51-1.791-27.21-6.942-39.97-.497-8.28 4.184-11.67 11.859-10.06 17.987 1.83 6.964 10.64 11.676 21.07 7.863 4.85-1.761 9.16-4.6 14.18-5.922 4.7-1.234 10.68-.768 13.93 1.364 5.11 3.294-.57 9.429-5.32 12.679-6.74 4.626-15.04 6.818-22.85 5.821-5.9-.772-15.66-3.514-21.31 1.46-6.33 5.566-.24 9.795 3.65 13.158 2.6 2.26 2.93 4.828-.86 7.619-3.32 2.459-7.96 2.802-11.82 2.581-7.51-.448-15.02-2.762-20.59-5.941-1.57-.902-4.15 1.169-2.57 2.079 5.78 3.317 13.36 5.7 21.13 6.373 7.28.637 17.39-1.341 19.98-8.142 2.44-6.328-8.37-7.49-8.2-12.958.24-8.173 16.45-3.91 21.36-3.448 7.52.737 15.9-1.768 22.48-5.821 5.42-3.326 11.16-8.65 10.26-13.597-1.03-5.635-11.09-7.394-18.21-5.976-5.14 1.022-9.55 3.641-14.27 5.656-6.14 2.617-12.22 2.456-15.99-1.133-5.62-5.395-3.55-16.047 6.93-20.298 6.79-2.745 14.56-1.782 20.9-.869 7.11 1.038 13.95 2.73 21.29 3.317 5.22.413 11.58.21 16.02-3.354 4.03-3.216 5.53-7.855 2.69-10.886-3.07-3.268-9.14-4.526-14.26-5.626-5.83-1.23-12.09-2.022-17.45-3.938-4.37-1.58-5.71-3.894-1.59-7.462 3.26-2.816 7.36-5.313 11.81-6.721 5.04-1.604 10.26-2.169 15.4-3.264 9.89-2.097 19.54-7.422 21.32-15.416 1.62-7.184-4.77-12.823-12.47-15.269-3.91-1.241-8.49-1.954-13.21-.872-4.69 1.071-9.08 3.309-13.3 5.342-3.7 1.789-9.2 5.039-13.44 4.601-4.47-.44-4.97-3.585-2.85-6.474 3.49-4.773 12.34-10.547 10.06-15.884-3.03-7.131-16.85-4.587-25.02-1.753-10.5 3.646-20.12 9.965-22.64 18.511-1.26 4.286-.66 8.447.23 12.434.96 4.298 2.95 8.587 2.6 13.161-.16 2.268-1.13 4.567-3.48 6.476-1.01.825-3.95 3.048-5.56 3.109-1.74.071-1.63-1.976-1.82-3.014-.66-3.677-2.03-7.674-8.58-6.097-4.53 1.096-9.21 3.843-11.46 7.121-2.31 3.33-1.92 6.826-1.06 9.945.92 3.278 2.75 6.372 2.41 9.922-.25 2.764-1.23 6.35-4.1 8.713-3.63 3.007-9.25 1.463-11.69-.627-2.47-2.098-3.11-5.504-3.83-8.316-.63-2.401-1.34-12.381-7.82-9.632-4.19 1.778-7.25 6.856-8.85 9.861-2.12 3.941-2.81 8.122-1.54 11.801 2.05 5.933 9.83 9.696 15.59 13.342 6.05 3.833 14.43 8.287 15.81 14.821.7 3.33-1.51 7.648-5.61 10.1-4.93 2.954-11.38 2.557-15.24.279-6.38-3.772-2.02-11.951-5.07-17.197-2.93-5.09-12.75-1.946-17.85 1.765-5.06 3.679-6 8.64-4.97 12.889 2.7 11.233 16.03 20.723 29.99 24.105 6.35 1.537 13.76 1.883 20.85-.72 2.22-.731 1.48-3.07-.66-2.29z" fill="#dcd3d7"/><path d="M-175.549 634.674c42.731-11.137 85.258-27.973 118.517-56.222 41.583-35.315 63.796-78.915 93.722-118.824 8.436-11.265 17.737-22.096 27.724-32.754 6.728-7.189 15.37-16.73 25.896-20.357l-2.22-1.172c-.905 3.879-4.867 7.295-8.461 10.346-3.528 2.991-7.077 5.879-10.348 9.049-8.001 7.778-15.083 16.175-21.524 24.636-9.161 12.022-17.768 24.657-24.283 37.301-3.319 6.444-6.337 13.225-6.516 19.631-.019.762.911 1.136 1.852.944 10.751-2.072 21.508-5.205 32.195-8.179l38.347-10.603c5.276-1.379 10.55-2.708 15.852-3.81 3.383-.701 7.202-1.604 10.486-1.462.629.037 1.519.155 1.592.22.098.071.069-.157-.043.115-.027.043-.521 1.023-.654 1.192-.926 1.034-5.356 2.374-7.373 2.975-14.079 4.192-28.452 6.988-42.598 10.376l-29.024 7.407-15.222 4.39c-1.468.448-3.361.805-4.703 1.552-1.537.878-3.041 2.479-4.286 3.617-12.089 10.895-21.388 23.505-30.915 35.522-10.618 13.411-22.17 26.225-36.553 37.711-16.872 13.442-36.108 24.941-56.642 33.689-20.096 8.547-40.98 14.801-61.452 22.081l2.198.475c-1.884-3.173-3.416-6.961-2.098-11.048.579-1.801-2.89-1.735-3.469.066-1.425 4.532.059 8.853 2.154 12.418.389.652 1.175.846 2.199.475 19.014-6.756 38.318-12.61 57.053-20.241 19.004-7.746 36.81-17.578 53.068-29.301 15.867-11.412 29.483-24.447 40.922-38.495 10.23-12.557 19.584-25.574 31.375-37.497 2.487-2.5 5.684-6.328 9.286-7.747 5.049-1.971 10.709-3.192 15.888-4.641 10.062-2.789 20.177-5.344 30.287-7.752 14.681-3.52 29.722-6.294 44.27-10.879 2.645-.836 6.737-1.952 8.454-4.124 1.051-1.329 1.964-3.255.813-4.368-1.357-1.331-4.482-1.043-6.723-.812-4.305.453-8.669 1.411-12.971 2.408-25.125 5.781-49.969 14.215-75.086 20.121-2.253.526-4.518 1.024-6.78 1.473l1.852.944c.183-5.912 3.045-12.258 6.089-18.168 3.47-6.733 7.628-13.341 11.997-19.88 9.651-14.41 20.247-28.789 33.683-41.763 6.436-6.215 17.457-12.649 19.267-20.407.274-1.126-.915-1.63-2.22-1.171-8.876 3.069-16.32 10.178-22.355 16.158-8.283 8.187-15.953 16.802-23.085 25.509-16.245 19.875-29.541 40.659-43.62 61.199-14.415 21.036-29.92 41.589-49.459 60.653-15.401 15.045-34.045 28.054-54.478 38.331-22.945 11.537-47.459 19.623-72.005 26.023-2.255.575-2.165 3.261.129 2.67z" fill="#d7d7d7"/><path d="M43.398 513.468c1.406-11.361 11.01-22.925 22.12-31.999 11.469-9.36 26.198-17.538 41.183-20.776 7.963-1.726 15.413-1.596 22.226.157 8.732 2.262 16.244 5.559 26.935 3.583 9.536-1.755 18.882-5.385 28.366-7.72 7.247-1.775 14.602-2.441 21.36-1.785 12.377 1.225 22.374 7.116 24.154 16.98 2.105 11.717-5.95 25.988-21.347 33.663-7.064 3.519-14.731 5.722-22.28 7.406-7.791 1.737-15.708 2.49-23.383 5.415-14.278 5.43-21.885 16.435-33.751 24.34-16.665 11.104-39.798 12.668-56.029 9.076-8.603-1.899-16.738-5.535-20.911-11.563-4.149-5.971-4.45-13.635-7.932-19.905-.859-1.526-4.473-.016-3.587 1.516 3.238 5.804 3.774 12.716 7.068 18.481 3.317 5.821 9.453 9.783 16.811 12.375 14.6 5.134 33.948 5.068 51.817-.842 8.075-2.659 15.038-6.872 21.277-12.066 5.739-4.782 10.748-10.158 17.259-14.363 8.118-5.235 16.63-6.742 25.714-8.489 8.102-1.568 16.344-3.545 24.192-6.744 16.373-6.666 26.776-18.501 28.809-31.565 1.73-11.163-4.229-20.232-15.829-24.343-13.184-4.679-28.564-2.093-44.179 2.615-5.456 1.636-10.956 3.341-16.467 4.449-6.466 1.294-11.885.741-17.298-.767-8.121-2.237-15.653-4.84-25.401-3.931-15.111 1.401-30.671 8.577-43.29 17.201-12.785 8.745-24.145 20.015-29.15 32.01-1.186 2.826-1.864 5.603-2.209 8.374-.224 1.917 3.544 1.06 3.752-.783zm16.355-8.864c6.53-13.698 23.351-24.403 37.182-34.031 1.849-1.283.057-3.231-1.805-1.927-14.293 9.937-31.642 21.105-38.407 35.284-.826 1.728 2.191 2.424 3.03.674zm6.478 5.06c14.643 9.051 34.996 17.978 57.183 9.989 2.544-.912 1.316-3.73-1.2-2.812-20.583 7.409-39.784-1.714-53.254-10.005-1.825-1.141-4.554 1.687-2.729 2.828zm59.378-9.196c27.784-8.494 56.235-7.074 83.543-18.909 2.365-1.036 1.282-3.603-1.084-2.568-26.947 11.7-55.15 10.226-82.588 18.608-2.405.709-2.332 3.619.129 2.869z" fill="#d7d7d7"/><path d="M127.624 500.003c11.475.337 21.058 4.431 31.484 6.766 10.398 2.329 21.307 2.364 32.841-2.224 2.5-1.005 1.306-3.805-1.195-2.8-23.789 9.468-40.947-4.373-62.281-4.992-2.503-.086-3.339 3.196-.849 3.25zm.503-5.089c5.615-12.089 23.186-17.169 36.617-20.656 2.312-.607 2.229-3.327-.109-2.726-14.677 3.821-33.588 9.566-39.686 22.703-.839 1.798 2.326 2.499 3.178.679zm-8.775-21.274c-7.437 5.719-12.449 12.611-17.855 19.39-.549.692-.655 1.461.08 1.868.593.326 1.85.178 2.4-.514 5.206-6.536 10.023-13.328 17.176-18.847 1.736-1.313-.053-3.232-1.801-1.897zm-17.317 31.854c8.119 5.92 19.522 8.526 30.177 11.305 2.23.595 4.095-2.556 1.865-3.152-10.371-2.714-21.376-5.229-29.298-10.989-1.7-1.219-4.415 1.624-2.744 2.836zm-31.56 3.288c-2.493 5.261-2.699 10.857-1.837 15.724.86 4.916 2.966 10.3 8.542 12.52 1.842.719 4.363-1.766 2.534-2.507-4.928-1.956-6.764-6.753-7.468-11.133-.697-4.253-.749-9.3 1.444-13.944.832-1.787-2.356-2.491-3.216-.66zm26.529 12.603c-1.231 6.939-.416 14.922 6.773 18.202 1.781.81 4.361-1.695 2.568-2.534-6.191-2.814-6.803-9.813-5.749-15.771.141-.784-.339-1.42-1.374-1.411-.919.06-2.091.752-2.219 1.514zm-83.187-39.82c-4.736-3.338-6.405-8.997-7.247-14.228-.866-5.286-.933-10.927-.026-16.559.884-5.688 2.503-11.493 4.659-17.233 2.084-5.581 4.812-11.499 9.616-16.549 4.104-4.298 8.614-7.085 14.811-8.01 5.783-.864 11.513-.815 17.334-2.521 11.059-3.262 17.585-11.244 23.139-19.008 6.8-9.524 13.617-19.119 27.094-23.714 13.022-4.417 26.872-4.182 37.039.143 9.839 4.204 16.957 12.752 15.356 22.987-1.279 8.204-10.059 14.128-18.145 19.726-9.066 6.289-17.323 13.125-18.558 22.088-.698 5.252.944 9.804 2.441 14.45.585 1.826 1.27 3.998-.121 6.126-2.063 3.11-7.195 5.188-10.792 6.745-2.209.953-1.203 3.393 1.02 2.418 5.44-2.338 12.576-5.638 13.971-10.716 1.154-4.279-1.598-8.118-2.454-11.902-1.083-4.708-.979-9.887 2.428-14.959 2.681-4.004 6.998-7.356 11.317-10.434 8.318-5.923 18.068-11.74 21.433-20.148 3.942-9.835-1.187-19.533-8.759-25.103-8.39-6.195-21.114-8.69-34.375-6.925-13.854 1.839-25.901 7.966-34.33 18.066-6.966 8.363-11.93 20.105-23.543 25.724-11.35 5.475-23.836 1.405-34.312 9.392-6.333 4.823-10.171 10.904-12.942 16.938-3.298 7.197-5.462 14.561-6.708 21.746-1.109 6.415-1.125 12.787-.035 18.772 1.037 5.748 3.037 11.477 8.221 15.111 1.463 1.113 3.947-1.382 2.468-2.423zm104.694-96.85c-3.272 23.592-29.63 49.37-60.497 53.76-2.217.315-2.09 2.971.127 2.657 32.267-4.593 60.351-31.792 63.75-56.499.246-1.722-3.131-1.688-3.38.082zm-20.616.682c-5.27 10.297-12.729 20.294-21.649 29.237-1.469 1.483.938 2.83 2.43 1.353 9.134-9.13 16.797-19.388 22.177-29.921.815-1.683-2.107-2.368-2.958-.669zm-51.166 25.398c-2.985 4.171-4.169 8.735-4.557 13.008-.383 4.127.039 8.357 1.96 11.788.815 1.451 4.155.026 3.34-1.425-1.769-3.177-2.132-7.002-1.836-10.806.299-3.901 1.468-8.077 4.178-11.891 1.223-1.716-1.875-2.368-3.085-.674zm-24.061 9.757c-2.385 6.896-3.672 13.904-3.641 20.577.019 6.373 1.216 13.049 6.122 17.427 1.318 1.176 4.369-.844 3.051-2.02-4.686-4.181-5.629-10.579-5.597-16.669.029-6.313 1.311-12.901 3.54-19.409.634-1.796-2.853-1.73-3.475.094zm84.508 19.736c-9.058 6.61-20.138 11.262-31.079 14.099-10.242 2.643-21.252 4.044-30.269 1.89-2.117-.503-3.945 2.402-1.828 2.904 9.592 2.303 21.334.9 32.234-1.92 11.585-2.99 23.341-7.894 32.945-14.888 1.977-1.45.016-3.552-2.003-2.085z" fill="#d7d7d7"/><path d="M84.146 441.417c-6.292 3.581-10.342 8.654-14.233 13.738-.539.705-.027 1.498.703 1.66.901.2 1.813-.302 2.315-.992 3.569-4.645 7.283-9.21 13-12.482.838-.469 1.032-1.47.582-1.958-.521-.552-1.517-.457-2.368.034zm14.965-36.69c-1.052 6.13-2.861 12.362-3.082 18.406-.064 1.741 3.411.97 3.475-.771.225-5.824 1.988-11.798 2.995-17.719.126-.752-.333-1.365-1.309-1.36-.854.031-1.953.691-2.079 1.444zM78.445 390.51l1.896 17.773c.192 1.713 3.782.935 3.603-.8l-1.895-17.774c-.167-1.707-3.782-.934-3.603.801z" fill="#d7d7d7"/></g></svg>