<svg xmlns="http://www.w3.org/2000/svg" width="20" height="20" fill="#274c5b" xmlns:v="https://vecta.io/nano"><path d="M13.659 2.263A4.11 4.11 0 0 1 16.496 3.4a3.81 3.81 0 0 1 1.18 2.732v7.737a3.81 3.81 0 0 1-1.18 2.732 4.11 4.11 0 0 1-2.837 1.137H5.624a4.11 4.11 0 0 1-2.837-1.137 3.81 3.81 0 0 1-1.18-2.732V6.132A3.81 3.81 0 0 1 2.787 3.4a4.11 4.11 0 0 1 2.837-1.137h8.034zm0-1.547H5.624C2.531.716 0 3.153 0 6.132v7.737c0 2.979 2.531 5.416 5.624 5.416h8.034c3.093 0 5.624-2.437 5.624-5.416V6.132c0-2.979-2.531-5.416-5.624-5.416zm1.205 5.417a1.24 1.24 0 0 1-.67-.196 1.17 1.17 0 0 1-.444-.521 1.12 1.12 0 0 1-.069-.671 1.14 1.14 0 0 1 .33-.594 1.22 1.22 0 0 1 .617-.318 1.25 1.25 0 0 1 .696.066c.22.088.408.237.541.427a1.13 1.13 0 0 1 .203.645 1.12 1.12 0 0 1-.091.445 1.15 1.15 0 0 1-.261.377 1.22 1.22 0 0 1-.391.252 1.23 1.23 0 0 1-.462.088zm-5.222.773c.636 0 1.257.182 1.786.522s.94.823 1.184 1.389a2.99 2.99 0 0 1 .183 1.788 3.06 3.06 0 0 1-.88 1.585 3.25 3.25 0 0 1-1.646.847 3.33 3.33 0 0 1-1.857-.176 3.19 3.19 0 0 1-1.442-1.14c-.353-.509-.542-1.107-.542-1.719a3.04 3.04 0 0 1 .942-2.187 3.28 3.28 0 0 1 2.272-.907zm0-1.547c-.953 0-1.885.272-2.678.782S5.553 7.376 5.188 8.224a4.48 4.48 0 0 0-.274 2.682 4.59 4.59 0 0 0 1.319 2.377 4.88 4.88 0 0 0 2.468 1.271c.935.179 1.904.087 2.785-.264s1.634-.946 2.163-1.71a4.52 4.52 0 0 0 .812-2.579c0-1.231-.508-2.412-1.412-3.282a4.92 4.92 0 0 0-3.409-1.36z"/></svg>