<svg xmlns="http://www.w3.org/2000/svg" width="20" height="21" fill="none" xmlns:v="https://vecta.io/nano"><path d="M9.797.716C4.387.716 0 5.1 0 10.508c0 4.009 2.414 7.454 5.865 8.97-.026-.682-.004-1.504.171-2.247l1.26-5.338s-.315-.625-.315-1.548c0-1.451.84-2.535 1.889-2.535.892 0 1.321.669 1.321 1.469 0 .896-.573 2.234-.866 3.475-.245 1.04.52 1.884 1.548 1.884 1.854 0 3.105-2.383 3.105-5.207 0-2.146-1.448-3.751-4.076-3.751-2.97 0-4.824 2.216-4.824 4.691 0 .852.254 1.456.647 1.919.179.214.206.302.14.546l-.201.787c-.066.249-.267.337-.49.245-1.369-.56-2.007-2.055-2.007-3.742 0-2.78 2.349-6.116 7.002-6.116 3.739 0 6.202 2.706 6.202 5.609 0 3.843-2.139 6.71-5.288 6.71-1.058 0-2.051-.573-2.392-1.22l-.691 2.693c-.206.756-.612 1.508-.984 2.098a9.85 9.85 0 0 0 2.777.402c5.41 0 9.797-4.385 9.797-9.792S15.207.716 9.797.716z" fill="#274c5b"/></svg>