<svg xmlns="http://www.w3.org/2000/svg" width="18" height="20" fill="none" xmlns:v="https://vecta.io/nano"><path d="M12.316 1.454C11.474.517 10.298 0 9 0 7.695 0 6.515.513 5.677 1.446c-.847.942-1.26 2.223-1.163 3.606C4.706 7.78 6.718 10 9 10s4.291-2.219 4.486-4.947c.098-1.371-.317-2.649-1.169-3.598zM16.615 20H1.385c-.199.003-.397-.041-.578-.127a1.35 1.35 0 0 1-.469-.37c-.281-.347-.395-.82-.311-1.3.365-2.09 1.505-3.846 3.296-5.079C4.915 12.031 6.93 11.429 9 11.429s4.085.603 5.677 1.696c1.791 1.232 2.931 2.988 3.296 5.078.084.479-.029.953-.311 1.3-.128.158-.288.285-.469.371s-.379.129-.578.127z" fill="#efd372"/></svg>