<svg xmlns="http://www.w3.org/2000/svg" width="22" height="21" fill="none" xmlns:v="https://vecta.io/nano"><path d="M21.469 18.892l-4.761-4.761c1.146-1.526 1.765-3.383 1.763-5.291 0-4.874-3.966-8.84-8.84-8.84S.791 3.966.791 8.84s3.966 8.84 8.84 8.84c1.908.002 3.766-.617 5.291-1.763l4.761 4.761c.241.215.555.33.878.321s.631-.141.859-.37.361-.536.37-.859-.106-.637-.321-.878zM3.317 8.84c0-1.249.37-2.47 1.064-3.508s1.68-1.848 2.834-2.326 2.423-.603 3.648-.359 2.35.845 3.233 1.728 1.485 2.008 1.728 3.233.119 2.495-.359 3.648-1.287 2.14-2.326 2.834-2.259 1.064-3.508 1.064A6.32 6.32 0 0 1 3.317 8.84z" fill="#fafafa"/></svg>