<svg xmlns="http://www.w3.org/2000/svg" width="21" height="18" fill="none" xmlns:v="https://vecta.io/nano"><path d="M20.66 2.674c-.775.337-1.595.559-2.434.659.882-.516 1.545-1.337 1.865-2.307a8.51 8.51 0 0 1-2.693 1.011c-.399-.419-.88-.752-1.412-.979S14.882.715 14.303.716c-2.342 0-4.238 1.868-4.238 4.171a4.01 4.01 0 0 0 .109.951 12.08 12.08 0 0 1-8.738-4.36 4.12 4.12 0 0 0-.576 2.096c0 1.446.755 2.725 1.894 3.473-.675-.016-1.336-.195-1.927-.521v.052c0 2.023 1.463 3.706 3.4 4.089a4.34 4.34 0 0 1-1.117.146 4.06 4.06 0 0 1-.797-.077c.538 1.657 2.106 2.862 3.962 2.897a8.59 8.59 0 0 1-5.265 1.786c-.338-.001-.676-.021-1.011-.06 1.937 1.237 4.189 1.891 6.488 1.885 7.806 0 12.071-6.357 12.071-11.871 0-.181-.005-.362-.013-.538.828-.589 1.544-1.32 2.115-2.161z" fill="#274c5b"/></svg>